%TF.GenerationSoftware,KiCad,Pcbnew,(6.0.0)*%
%TF.CreationDate,2022-06-14T20:33:02+03:00*%
%TF.ProjectId,breadboard_power_supply,62726561-6462-46f6-9172-645f706f7765,rev?*%
%TF.SameCoordinates,Original*%
%TF.FileFunction,Legend,Bot*%
%TF.FilePolarity,Positive*%
%FSLAX46Y46*%
G04 Gerber Fmt 4.6, Leading zero omitted, Abs format (unit mm)*
G04 Created by KiCad (PCBNEW (6.0.0)) date 2022-06-14 20:33:02*
%MOMM*%
%LPD*%
G01*
G04 APERTURE LIST*
%ADD10C,0.150000*%
G04 APERTURE END LIST*
D10*
X77677276Y-84673961D02*
X77677276Y-82673961D01*
X76534419Y-84673961D02*
X77391561Y-83531104D01*
X76534419Y-82673961D02*
X77677276Y-83816819D01*
X75677276Y-83626342D02*
X75010609Y-83626342D01*
X74724895Y-84673961D02*
X75677276Y-84673961D01*
X75677276Y-82673961D01*
X74724895Y-82673961D01*
X73867752Y-84673961D02*
X73867752Y-82673961D01*
X73391561Y-82673961D01*
X73105847Y-82769200D01*
X72915371Y-82959676D01*
X72820133Y-83150152D01*
X72724895Y-83531104D01*
X72724895Y-83816819D01*
X72820133Y-84197771D01*
X72915371Y-84388247D01*
X73105847Y-84578723D01*
X73391561Y-84673961D01*
X73867752Y-84673961D01*
X71867752Y-84673961D02*
X71867752Y-82673961D01*
X71010609Y-84102533D02*
X70058228Y-84102533D01*
X71201085Y-84673961D02*
X70534419Y-82673961D01*
X69867752Y-84673961D01*
X69201085Y-84673961D02*
X69201085Y-82673961D01*
X68058228Y-84673961D02*
X68915371Y-83531104D01*
X68058228Y-82673961D02*
X69201085Y-83816819D01*
X65677276Y-84673961D02*
X65677276Y-82673961D01*
X64915371Y-82673961D01*
X64724895Y-82769200D01*
X64629657Y-82864438D01*
X64534419Y-83054914D01*
X64534419Y-83340628D01*
X64629657Y-83531104D01*
X64724895Y-83626342D01*
X64915371Y-83721580D01*
X65677276Y-83721580D01*
X62534419Y-84673961D02*
X63201085Y-83721580D01*
X63677276Y-84673961D02*
X63677276Y-82673961D01*
X62915371Y-82673961D01*
X62724895Y-82769200D01*
X62629657Y-82864438D01*
X62534419Y-83054914D01*
X62534419Y-83340628D01*
X62629657Y-83531104D01*
X62724895Y-83626342D01*
X62915371Y-83721580D01*
X63677276Y-83721580D01*
X61296323Y-82673961D02*
X60915371Y-82673961D01*
X60724895Y-82769200D01*
X60534419Y-82959676D01*
X60439180Y-83340628D01*
X60439180Y-84007295D01*
X60534419Y-84388247D01*
X60724895Y-84578723D01*
X60915371Y-84673961D01*
X61296323Y-84673961D01*
X61486800Y-84578723D01*
X61677276Y-84388247D01*
X61772514Y-84007295D01*
X61772514Y-83340628D01*
X61677276Y-82959676D01*
X61486800Y-82769200D01*
X61296323Y-82673961D01*
X59010609Y-82673961D02*
X59010609Y-84102533D01*
X59105847Y-84388247D01*
X59296323Y-84578723D01*
X59582038Y-84673961D01*
X59772514Y-84673961D01*
X58058228Y-83626342D02*
X57391561Y-83626342D01*
X57105847Y-84673961D02*
X58058228Y-84673961D01*
X58058228Y-82673961D01*
X57105847Y-82673961D01*
X55105847Y-84483485D02*
X55201085Y-84578723D01*
X55486800Y-84673961D01*
X55677276Y-84673961D01*
X55962990Y-84578723D01*
X56153466Y-84388247D01*
X56248704Y-84197771D01*
X56343942Y-83816819D01*
X56343942Y-83531104D01*
X56248704Y-83150152D01*
X56153466Y-82959676D01*
X55962990Y-82769200D01*
X55677276Y-82673961D01*
X55486800Y-82673961D01*
X55201085Y-82769200D01*
X55105847Y-82864438D01*
X54534419Y-82673961D02*
X53391561Y-82673961D01*
X53962990Y-84673961D02*
X53962990Y-82673961D01*
X50058228Y-84673961D02*
X50724895Y-83721580D01*
X51201085Y-84673961D02*
X51201085Y-82673961D01*
X50439180Y-82673961D01*
X50248704Y-82769200D01*
X50153466Y-82864438D01*
X50058228Y-83054914D01*
X50058228Y-83340628D01*
X50153466Y-83531104D01*
X50248704Y-83626342D01*
X50439180Y-83721580D01*
X51201085Y-83721580D01*
X49201085Y-83626342D02*
X48534419Y-83626342D01*
X48248704Y-84673961D02*
X49201085Y-84673961D01*
X49201085Y-82673961D01*
X48248704Y-82673961D01*
X47677276Y-82673961D02*
X47010609Y-84673961D01*
X46343942Y-82673961D01*
X43772514Y-82673961D02*
X43582038Y-82673961D01*
X43391561Y-82769200D01*
X43296323Y-82864438D01*
X43201085Y-83054914D01*
X43105847Y-83435866D01*
X43105847Y-83912057D01*
X43201085Y-84293009D01*
X43296323Y-84483485D01*
X43391561Y-84578723D01*
X43582038Y-84673961D01*
X43772514Y-84673961D01*
X43962990Y-84578723D01*
X44058228Y-84483485D01*
X44153466Y-84293009D01*
X44248704Y-83912057D01*
X44248704Y-83435866D01*
X44153466Y-83054914D01*
X44058228Y-82864438D01*
X43962990Y-82769200D01*
X43772514Y-82673961D01*
X41201085Y-84673961D02*
X42343942Y-84673961D01*
X41772514Y-84673961D02*
X41772514Y-82673961D01*
X41962990Y-82959676D01*
X42153466Y-83150152D01*
X42343942Y-83245390D01*
M02*
