%TF.GenerationSoftware,KiCad,Pcbnew,(6.0.0)*%
%TF.CreationDate,2022-06-14T20:33:02+03:00*%
%TF.ProjectId,breadboard_power_supply,62726561-6462-46f6-9172-645f706f7765,rev?*%
%TF.SameCoordinates,Original*%
%TF.FileFunction,Copper,L1,Top*%
%TF.FilePolarity,Positive*%
%FSLAX46Y46*%
G04 Gerber Fmt 4.6, Leading zero omitted, Abs format (unit mm)*
G04 Created by KiCad (PCBNEW (6.0.0)) date 2022-06-14 20:33:02*
%MOMM*%
%LPD*%
G01*
G04 APERTURE LIST*
G04 Aperture macros list*
%AMRoundRect*
0 Rectangle with rounded corners*
0 $1 Rounding radius*
0 $2 $3 $4 $5 $6 $7 $8 $9 X,Y pos of 4 corners*
0 Add a 4 corners polygon primitive as box body*
4,1,4,$2,$3,$4,$5,$6,$7,$8,$9,$2,$3,0*
0 Add four circle primitives for the rounded corners*
1,1,$1+$1,$2,$3*
1,1,$1+$1,$4,$5*
1,1,$1+$1,$6,$7*
1,1,$1+$1,$8,$9*
0 Add four rect primitives between the rounded corners*
20,1,$1+$1,$2,$3,$4,$5,0*
20,1,$1+$1,$4,$5,$6,$7,0*
20,1,$1+$1,$6,$7,$8,$9,0*
20,1,$1+$1,$8,$9,$2,$3,0*%
G04 Aperture macros list end*
%TA.AperFunction,ComponentPad*%
%ADD10R,1.700000X1.700000*%
%TD*%
%TA.AperFunction,ComponentPad*%
%ADD11O,1.700000X1.700000*%
%TD*%
%TA.AperFunction,SMDPad,CuDef*%
%ADD12RoundRect,0.250000X0.475000X-0.250000X0.475000X0.250000X-0.475000X0.250000X-0.475000X-0.250000X0*%
%TD*%
%TA.AperFunction,ComponentPad*%
%ADD13R,3.000000X3.000000*%
%TD*%
%TA.AperFunction,ComponentPad*%
%ADD14C,3.000000*%
%TD*%
%TA.AperFunction,SMDPad,CuDef*%
%ADD15RoundRect,0.250000X-0.262500X-0.450000X0.262500X-0.450000X0.262500X0.450000X-0.262500X0.450000X0*%
%TD*%
%TA.AperFunction,SMDPad,CuDef*%
%ADD16RoundRect,0.250000X-0.250000X-0.475000X0.250000X-0.475000X0.250000X0.475000X-0.250000X0.475000X0*%
%TD*%
%TA.AperFunction,SMDPad,CuDef*%
%ADD17RoundRect,0.250000X0.262500X0.450000X-0.262500X0.450000X-0.262500X-0.450000X0.262500X-0.450000X0*%
%TD*%
%TA.AperFunction,SMDPad,CuDef*%
%ADD18RoundRect,0.243750X-0.243750X-0.456250X0.243750X-0.456250X0.243750X0.456250X-0.243750X0.456250X0*%
%TD*%
%TA.AperFunction,ComponentPad*%
%ADD19R,1.905000X2.000000*%
%TD*%
%TA.AperFunction,ComponentPad*%
%ADD20O,1.905000X2.000000*%
%TD*%
%TA.AperFunction,SMDPad,CuDef*%
%ADD21RoundRect,0.250000X0.450000X-0.262500X0.450000X0.262500X-0.450000X0.262500X-0.450000X-0.262500X0*%
%TD*%
%TA.AperFunction,ComponentPad*%
%ADD22O,2.000000X4.000000*%
%TD*%
%TA.AperFunction,ComponentPad*%
%ADD23O,4.000000X2.000000*%
%TD*%
%TA.AperFunction,ViaPad*%
%ADD24C,0.900000*%
%TD*%
%TA.AperFunction,ViaPad*%
%ADD25C,0.800000*%
%TD*%
%TA.AperFunction,Conductor*%
%ADD26C,0.250000*%
%TD*%
%TA.AperFunction,Conductor*%
%ADD27C,0.350000*%
%TD*%
G04 APERTURE END LIST*
D10*
%TO.P,J14,1,Pin_1*%
%TO.N,/VCCB*%
X31597600Y-78079600D03*
D11*
%TO.P,J14,2,Pin_2*%
%TO.N,unconnected-(J14-Pad2)*%
X31597600Y-75539600D03*
%TO.P,J14,3,Pin_3*%
%TO.N,/A0_MQ131*%
X31597600Y-72999600D03*
%TO.P,J14,4,Pin_4*%
%TO.N,GND*%
X31597600Y-70459600D03*
%TD*%
D12*
%TO.P,C1,1*%
%TO.N,/12V*%
X41654100Y-108239600D03*
%TO.P,C1,2*%
%TO.N,GND*%
X41654100Y-106339600D03*
%TD*%
D10*
%TO.P,J5,1,Pin_1*%
%TO.N,/VCCB*%
X83169600Y-119710600D03*
D11*
%TO.P,J5,2,Pin_2*%
%TO.N,GND*%
X85709600Y-119710600D03*
%TO.P,J5,3,Pin_3*%
%TO.N,/Connectors/Rx*%
X88249600Y-119710600D03*
%TO.P,J5,4,Pin_4*%
%TO.N,/Tx*%
X90789600Y-119710600D03*
%TD*%
D13*
%TO.P,J7,1,Pin_1*%
%TO.N,/PWR_OUT*%
X70713600Y-117449600D03*
D14*
%TO.P,J7,2,Pin_2*%
%TO.N,GND*%
X75793600Y-117449600D03*
%TD*%
D10*
%TO.P,J3,1,Pin_1*%
%TO.N,/VCCA*%
X62316600Y-119760600D03*
D11*
%TO.P,J3,2,Pin_2*%
%TO.N,GND*%
X59776600Y-119760600D03*
%TO.P,J3,3,Pin_3*%
%TO.N,/SCL*%
X57236600Y-119760600D03*
%TO.P,J3,4,Pin_4*%
%TO.N,/SDA*%
X54696600Y-119760600D03*
%TO.P,J3,5,Pin_5*%
%TO.N,unconnected-(J3-Pad5)*%
X52156600Y-119760600D03*
%TO.P,J3,6,Pin_6*%
%TO.N,unconnected-(J3-Pad6)*%
X49616600Y-119760600D03*
%TO.P,J3,7,Pin_7*%
%TO.N,unconnected-(J3-Pad7)*%
X47076600Y-119760600D03*
%TO.P,J3,8,Pin_8*%
%TO.N,unconnected-(J3-Pad8)*%
X44536600Y-119760600D03*
%TD*%
D15*
%TO.P,R1,1*%
%TO.N,Net-(R1-Pad1)*%
X45266600Y-106781600D03*
%TO.P,R1,2*%
%TO.N,/VCCB*%
X47091600Y-106781600D03*
%TD*%
D16*
%TO.P,C2,1*%
%TO.N,/VCCA*%
X56809600Y-112623600D03*
%TO.P,C2,2*%
%TO.N,GND*%
X58709600Y-112623600D03*
%TD*%
D17*
%TO.P,R5,1*%
%TO.N,/Rx*%
X87628100Y-110845600D03*
%TO.P,R5,2*%
%TO.N,/Connectors/Rx*%
X85803100Y-110845600D03*
%TD*%
D13*
%TO.P,J4,1,Pin_1*%
%TO.N,GND*%
X79095600Y-89509600D03*
D14*
%TO.P,J4,2,Pin_2*%
%TO.N,/12V*%
X74015600Y-89509600D03*
%TO.P,J4,3,Pin_3*%
%TO.N,GND*%
X68935600Y-89509600D03*
%TO.P,J4,4,Pin_4*%
%TO.N,/12V*%
X63855600Y-89509600D03*
%TO.P,J4,5,Pin_5*%
%TO.N,GND*%
X58775600Y-89509600D03*
%TO.P,J4,6,Pin_6*%
%TO.N,/12V*%
X53695600Y-89509600D03*
%TD*%
D10*
%TO.P,J9,1,Pin_1*%
%TO.N,/VCCA*%
X53949600Y-70434600D03*
D11*
%TO.P,J9,2,Pin_2*%
%TO.N,unconnected-(J9-Pad2)*%
X56489600Y-70434600D03*
%TO.P,J9,3,Pin_3*%
%TO.N,GND*%
X59029600Y-70434600D03*
%TO.P,J9,4,Pin_4*%
%TO.N,/SCL*%
X61569600Y-70434600D03*
%TO.P,J9,5,Pin_5*%
%TO.N,/SDA*%
X64109600Y-70434600D03*
%TO.P,J9,6,Pin_6*%
%TO.N,unconnected-(J9-Pad6)*%
X66649600Y-70434600D03*
%TO.P,J9,7,Pin_7*%
%TO.N,unconnected-(J9-Pad7)*%
X69189600Y-70434600D03*
%TD*%
D10*
%TO.P,J12,1,Pin_1*%
%TO.N,/VCCB*%
X101930600Y-119735600D03*
D11*
%TO.P,J12,2,Pin_2*%
%TO.N,GND*%
X101930600Y-117195600D03*
%TO.P,J12,3,Pin_3*%
%TO.N,unconnected-(J12-Pad3)*%
X101930600Y-114655600D03*
%TO.P,J12,4,Pin_4*%
%TO.N,/A0_MQ2*%
X101930600Y-112115600D03*
%TD*%
D10*
%TO.P,J11,1,Pin_1*%
%TO.N,GND*%
X90779600Y-80106600D03*
D11*
%TO.P,J11,2,Pin_2*%
%TO.N,/INT{slash}PT_PIN_2*%
X90779600Y-82646600D03*
%TO.P,J11,3,Pin_3*%
%TO.N,/A_WRT_PWM_9*%
X90779600Y-85186600D03*
%TO.P,J11,4,Pin_4*%
%TO.N,/INT{slash}PT_PIN_3*%
X90779600Y-87726600D03*
%TO.P,J11,5,Pin_5*%
%TO.N,/A_WRT_PWM_10*%
X90779600Y-90266600D03*
%TO.P,J11,6,Pin_6*%
%TO.N,/SDA*%
X90779600Y-92806600D03*
%TO.P,J11,7,Pin_7*%
%TO.N,/SCL*%
X90779600Y-95346600D03*
%TO.P,J11,8,Pin_8*%
%TO.N,/A0_MQ2*%
X90779600Y-97886600D03*
%TO.P,J11,9,Pin_9*%
%TO.N,/A0_MQ131*%
X90779600Y-100426600D03*
%TO.P,J11,10,Pin_10*%
%TO.N,/A0_MQ47*%
X90779600Y-102966600D03*
%TO.P,J11,11,Pin_11*%
%TO.N,/Tx*%
X90779600Y-105506600D03*
%TO.P,J11,12,Pin_12*%
%TO.N,/Rx*%
X90779600Y-108046600D03*
%TD*%
D16*
%TO.P,C3,1*%
%TO.N,/VCCB*%
X51880100Y-112623600D03*
%TO.P,C3,2*%
%TO.N,GND*%
X53780100Y-112623600D03*
%TD*%
D18*
%TO.P,D1,1,K*%
%TO.N,GND*%
X34470100Y-103733600D03*
%TO.P,D1,2,A*%
%TO.N,Net-(D1-Pad2)*%
X36345100Y-103733600D03*
%TD*%
D15*
%TO.P,R4,1*%
%TO.N,GND*%
X85803100Y-113131600D03*
%TO.P,R4,2*%
%TO.N,/Connectors/Rx*%
X87628100Y-113131600D03*
%TD*%
D19*
%TO.P,U1,1,VI*%
%TO.N,/12V*%
X70459600Y-99669600D03*
D20*
%TO.P,U1,2,GND*%
%TO.N,GND*%
X67919600Y-99669600D03*
%TO.P,U1,3,VO*%
%TO.N,/VCCA*%
X65379600Y-99669600D03*
%TD*%
D10*
%TO.P,J13,1,Pin_1*%
%TO.N,/INT{slash}PT_PIN_2*%
X84175600Y-99425600D03*
D11*
%TO.P,J13,2,Pin_2*%
%TO.N,/A_WRT_PWM_9*%
X84175600Y-101965600D03*
%TO.P,J13,3,Pin_3*%
%TO.N,/INT{slash}PT_PIN_3*%
X84175600Y-104505600D03*
%TO.P,J13,4,Pin_4*%
%TO.N,/A_WRT_PWM_10*%
X84175600Y-107045600D03*
%TD*%
D17*
%TO.P,R3,1*%
%TO.N,GND*%
X47091600Y-112369600D03*
%TO.P,R3,2*%
%TO.N,Net-(R1-Pad1)*%
X45266600Y-112369600D03*
%TD*%
D21*
%TO.P,R2,1*%
%TO.N,Net-(D1-Pad2)*%
X41654100Y-113282100D03*
%TO.P,R2,2*%
%TO.N,/12V*%
X41654100Y-111457100D03*
%TD*%
D10*
%TO.P,J10,1,Pin_1*%
%TO.N,/VCCB*%
X31622600Y-112125600D03*
D11*
%TO.P,J10,2,Pin_2*%
%TO.N,GND*%
X31622600Y-114665600D03*
%TO.P,J10,3,Pin_3*%
%TO.N,unconnected-(J10-Pad3)*%
X31622600Y-117205600D03*
%TO.P,J10,4,Pin_4*%
%TO.N,/A0_MQ47*%
X31622600Y-119745600D03*
%TD*%
D10*
%TO.P,J6,1,Pin_1*%
%TO.N,/VCCB*%
X58028600Y-108559600D03*
D11*
%TO.P,J6,2,Pin_2*%
%TO.N,/PWR_OUT*%
X60568600Y-108559600D03*
%TO.P,J6,3,Pin_3*%
%TO.N,/VCCA*%
X63108600Y-108559600D03*
%TD*%
D10*
%TO.P,J2,1,Pin_1*%
%TO.N,/VCCA*%
X101980600Y-82143600D03*
D11*
%TO.P,J2,2,Pin_2*%
%TO.N,unconnected-(J2-Pad2)*%
X101980600Y-84683600D03*
%TO.P,J2,3,Pin_3*%
%TO.N,GND*%
X101980600Y-87223600D03*
%TO.P,J2,4,Pin_4*%
%TO.N,/SCL*%
X101980600Y-89763600D03*
%TO.P,J2,5,Pin_5*%
%TO.N,unconnected-(J2-Pad5)*%
X101980600Y-92303600D03*
%TO.P,J2,6,Pin_6*%
%TO.N,/SDA*%
X101980600Y-94843600D03*
%TO.P,J2,7,Pin_7*%
%TO.N,unconnected-(J2-Pad7)*%
X101980600Y-97383600D03*
%TD*%
D19*
%TO.P,U2,1,ADJ*%
%TO.N,Net-(R1-Pad1)*%
X52679600Y-101630600D03*
D20*
%TO.P,U2,2,VO*%
%TO.N,/VCCB*%
X55219600Y-101630600D03*
%TO.P,U2,3,VI*%
%TO.N,/12V*%
X57759600Y-101630600D03*
%TD*%
D10*
%TO.P,J8,1,Pin_1*%
%TO.N,/VCCA*%
X91825600Y-70434600D03*
D11*
%TO.P,J8,2,Pin_2*%
%TO.N,unconnected-(J8-Pad2)*%
X94365600Y-70434600D03*
%TO.P,J8,3,Pin_3*%
%TO.N,GND*%
X96905600Y-70434600D03*
%TO.P,J8,4,Pin_4*%
%TO.N,/SCL*%
X99445600Y-70434600D03*
%TO.P,J8,5,Pin_5*%
%TO.N,/SDA*%
X101985600Y-70434600D03*
%TD*%
D22*
%TO.P,J1,1*%
%TO.N,/12V*%
X44805600Y-95605600D03*
%TO.P,J1,2*%
%TO.N,GND*%
X38805600Y-95605600D03*
D23*
%TO.P,J1,3*%
X41805600Y-100305600D03*
%TD*%
D24*
%TO.N,/12V*%
X52075795Y-103585174D03*
D25*
%TO.N,GND*%
X64109600Y-84175600D03*
D24*
X33070800Y-103733600D03*
X42096565Y-104936165D03*
X59690000Y-113538000D03*
X47091600Y-110693200D03*
X83159600Y-111506000D03*
X54305200Y-114096800D03*
%TO.N,/VCCA*%
X51155600Y-107797600D03*
X56997600Y-94589600D03*
D25*
%TO.N,Net-(R1-Pad1)*%
X47345600Y-104749600D03*
X47853600Y-102463600D03*
%TO.N,/SCL*%
X81355089Y-99897089D03*
X71983600Y-80873600D03*
%TO.N,/A0_MQ47*%
X70459600Y-111099600D03*
%TO.N,/A0_MQ131*%
X81381600Y-103987600D03*
X77063600Y-98145600D03*
%TD*%
D26*
%TO.N,/SCL*%
X83413600Y-97838578D02*
X81355089Y-99897089D01*
X83413600Y-87376000D02*
X83413600Y-97838578D01*
X80264000Y-84226400D02*
X83413600Y-87376000D01*
X75336400Y-84226400D02*
X80264000Y-84226400D01*
X71983600Y-80873600D02*
X75336400Y-84226400D01*
D27*
%TO.N,/VCCB*%
X33716120Y-114219120D02*
X31622600Y-112125600D01*
X48239280Y-114219120D02*
X33716120Y-114219120D01*
X51880100Y-112623600D02*
X49834800Y-112623600D01*
X49834800Y-112623600D02*
X48239280Y-114219120D01*
X49147100Y-106781600D02*
X49631600Y-107266100D01*
X47091600Y-106781600D02*
X49147100Y-106781600D01*
D26*
%TO.N,/SCL*%
X103632000Y-91415000D02*
X101980600Y-89763600D01*
X103632000Y-95402400D02*
X103632000Y-91415000D01*
X102837800Y-96196600D02*
X103632000Y-95402400D01*
X91629600Y-96196600D02*
X102837800Y-96196600D01*
X90779600Y-95346600D02*
X91629600Y-96196600D01*
X103987600Y-87756600D02*
X103987600Y-74976600D01*
X103987600Y-74976600D02*
X99445600Y-70434600D01*
X101980600Y-89763600D02*
X103987600Y-87756600D01*
D27*
%TO.N,/12V*%
X41654100Y-108239600D02*
X40504580Y-107090080D01*
X44192026Y-103585174D02*
X52075795Y-103585174D01*
X40504580Y-107090080D02*
X40504580Y-105291420D01*
X43484800Y-109626400D02*
X43484800Y-107323300D01*
X43027600Y-106866100D02*
X43027600Y-104749600D01*
X41654100Y-108239600D02*
X43027600Y-106866100D01*
X41161300Y-107746800D02*
X40504580Y-107090080D01*
X41654100Y-111457100D02*
X43484800Y-109626400D01*
X43027600Y-104749600D02*
X44192026Y-103585174D01*
X43484800Y-107323300D02*
X43027600Y-106866100D01*
X40504580Y-105291420D02*
X44805600Y-100990400D01*
X44805600Y-95605600D02*
X45313600Y-95605600D01*
X44805600Y-100990400D02*
X44805600Y-95605600D01*
%TO.N,GND*%
X52171600Y-68529200D02*
X50241200Y-70459600D01*
X58775600Y-112623600D02*
X59690000Y-113538000D01*
X53780100Y-112623600D02*
X53780100Y-113571700D01*
X84785200Y-113131600D02*
X83159600Y-111506000D01*
X41654100Y-105378630D02*
X41654100Y-106339600D01*
X58775600Y-89509600D02*
X64109600Y-84175600D01*
X34470100Y-103733600D02*
X33070800Y-103733600D01*
X58709600Y-112623600D02*
X58775600Y-112623600D01*
X50241200Y-70459600D02*
X31597600Y-70459600D01*
X57124200Y-68529200D02*
X52171600Y-68529200D01*
X64109600Y-84175600D02*
X64109600Y-84683600D01*
X64109600Y-84683600D02*
X68935600Y-89509600D01*
X59029600Y-70434600D02*
X57124200Y-68529200D01*
X47091600Y-112369600D02*
X47091600Y-110693200D01*
X42096565Y-104936165D02*
X41654100Y-105378630D01*
X53780100Y-113571700D02*
X54305200Y-114096800D01*
X85803100Y-113131600D02*
X84785200Y-113131600D01*
%TO.N,/VCCA*%
X79400400Y-94589600D02*
X56997600Y-94589600D01*
X56809600Y-112623600D02*
X55981600Y-112623600D01*
X62077600Y-99669600D02*
X65379600Y-99669600D01*
X91825600Y-70434600D02*
X90551089Y-71709111D01*
X90505111Y-71709111D02*
X89530089Y-71709111D01*
X56809600Y-112623600D02*
X62316600Y-118130600D01*
X89530089Y-71709111D02*
X72512089Y-71709111D01*
X65379600Y-106288600D02*
X63108600Y-108559600D01*
X90551089Y-71709111D02*
X89530089Y-71709111D01*
X58521600Y-75539600D02*
X54356000Y-79705200D01*
X101980600Y-82143600D02*
X100939600Y-82143600D01*
X72512089Y-71709111D02*
X68681600Y-75539600D01*
X62316600Y-118130600D02*
X62316600Y-119760600D01*
X53949600Y-70434600D02*
X53949600Y-79705200D01*
X54356000Y-79705200D02*
X53949600Y-79705200D01*
X70919164Y-80975200D02*
X74983164Y-85039200D01*
X68681600Y-75539600D02*
X58521600Y-75539600D01*
X74983164Y-85039200D02*
X79857600Y-85039200D01*
X65379600Y-99669600D02*
X65379600Y-106288600D01*
X55981600Y-112623600D02*
X51155600Y-107797600D01*
X82499200Y-91490800D02*
X79400400Y-94589600D01*
X79857600Y-85039200D02*
X82499200Y-87680800D01*
X53949600Y-79705200D02*
X55219600Y-80975200D01*
X55219600Y-80975200D02*
X70919164Y-80975200D01*
X100939600Y-82143600D02*
X90505111Y-71709111D01*
X56997600Y-94589600D02*
X62077600Y-99669600D01*
X82499200Y-87680800D02*
X82499200Y-91490800D01*
%TO.N,/VCCB*%
X61569600Y-113131600D02*
X59537600Y-111099600D01*
X56235600Y-111099600D02*
X52540850Y-107404850D01*
X49022000Y-82042000D02*
X71138114Y-82042000D01*
X101930600Y-119735600D02*
X100681089Y-120985111D01*
X66878600Y-119710600D02*
X61569600Y-114401600D01*
X52540850Y-107404850D02*
X52540850Y-104356850D01*
X84444111Y-120985111D02*
X83169600Y-119710600D01*
X81483200Y-91440000D02*
X79208111Y-93715089D01*
X59537600Y-111099600D02*
X56235600Y-111099600D01*
X45059600Y-78079600D02*
X49022000Y-82042000D01*
X51880100Y-112623600D02*
X51880100Y-111570100D01*
X55219600Y-101630600D02*
X55219600Y-101678100D01*
X49631600Y-107266100D02*
X49746850Y-107150850D01*
X74734835Y-85638720D02*
X79390320Y-85638720D01*
X51880100Y-111570100D02*
X49631600Y-109321600D01*
X100681089Y-120985111D02*
X84444111Y-120985111D01*
X81483200Y-87731600D02*
X81483200Y-91440000D01*
X83169600Y-119710600D02*
X66878600Y-119710600D01*
X61569600Y-114401600D02*
X61569600Y-113131600D01*
X55219600Y-105750600D02*
X58028600Y-108559600D01*
X56635365Y-93715089D02*
X55219600Y-95130854D01*
X71138114Y-82042000D02*
X74734835Y-85638720D01*
X79390320Y-85638720D02*
X81483200Y-87731600D01*
X55219600Y-101678100D02*
X52540850Y-104356850D01*
X31597600Y-78079600D02*
X45059600Y-78079600D01*
X55219600Y-95130854D02*
X55219600Y-101630600D01*
X55219600Y-101630600D02*
X55219600Y-105750600D01*
X79208111Y-93715089D02*
X56635365Y-93715089D01*
X52540850Y-104356850D02*
X49746850Y-107150850D01*
X49631600Y-109321600D02*
X49631600Y-107266100D01*
D26*
%TO.N,Net-(D1-Pad2)*%
X36345100Y-103733600D02*
X36345100Y-107973100D01*
X36345100Y-107973100D02*
X41654100Y-113282100D01*
%TO.N,/Connectors/Rx*%
X88249600Y-113753100D02*
X88249600Y-119710600D01*
X87628100Y-113131600D02*
X88249600Y-113753100D01*
X85803100Y-111306600D02*
X87628100Y-113131600D01*
X85803100Y-110845600D02*
X85803100Y-111306600D01*
%TO.N,Net-(R1-Pad1)*%
X47298600Y-104749600D02*
X47345600Y-104749600D01*
X45266600Y-112369600D02*
X45266600Y-106781600D01*
X45266600Y-106781600D02*
X47298600Y-104749600D01*
X48686600Y-101630600D02*
X52679600Y-101630600D01*
X47853600Y-102463600D02*
X48686600Y-101630600D01*
%TO.N,/SDA*%
X92816600Y-94843600D02*
X90779600Y-92806600D01*
X101980600Y-94843600D02*
X92816600Y-94843600D01*
%TO.N,/Rx*%
X87980600Y-110845600D02*
X87628100Y-110845600D01*
X90779600Y-108046600D02*
X87980600Y-110845600D01*
%TO.N,/Tx*%
X92557600Y-107284600D02*
X92557600Y-114401600D01*
X92557600Y-114401600D02*
X90789600Y-116169600D01*
X90779600Y-105506600D02*
X92557600Y-107284600D01*
X90789600Y-116169600D02*
X90789600Y-119710600D01*
%TO.N,/A0_MQ47*%
X73339089Y-108220111D02*
X85526089Y-108220111D01*
X70459600Y-111099600D02*
X73339089Y-108220111D01*
X85526089Y-108220111D02*
X90779600Y-102966600D01*
%TO.N,/A0_MQ2*%
X101930600Y-109037600D02*
X90779600Y-97886600D01*
X101930600Y-112115600D02*
X101930600Y-109037600D01*
%TO.N,/A0_MQ131*%
X77063600Y-99923600D02*
X77063600Y-98145600D01*
X81381600Y-103987600D02*
X81127600Y-103987600D01*
X81127600Y-103987600D02*
X77063600Y-99923600D01*
D27*
%TO.N,/PWR_OUT*%
X67665600Y-110337600D02*
X62346600Y-110337600D01*
X70713600Y-113385600D02*
X67665600Y-110337600D01*
X62346600Y-110337600D02*
X60568600Y-108559600D01*
X70713600Y-117449600D02*
X70713600Y-113385600D01*
D26*
%TO.N,/INT{slash}PT_PIN_2*%
X84175600Y-89250600D02*
X84175600Y-99425600D01*
X90779600Y-82646600D02*
X84175600Y-89250600D01*
%TO.N,/A_WRT_PWM_9*%
X87985600Y-98155600D02*
X84175600Y-101965600D01*
X87985600Y-87980600D02*
X87985600Y-98155600D01*
X90779600Y-85186600D02*
X87985600Y-87980600D01*
%TO.N,/INT{slash}PT_PIN_3*%
X89155569Y-99525631D02*
X84175600Y-104505600D01*
X89155569Y-89350631D02*
X89155569Y-99525631D01*
X90779600Y-87726600D02*
X89155569Y-89350631D01*
%TO.N,/A_WRT_PWM_10*%
X90779600Y-90266600D02*
X89605089Y-91441111D01*
X89605089Y-101616111D02*
X84175600Y-107045600D01*
X89605089Y-91441111D02*
X89605089Y-101616111D01*
%TD*%
%TA.AperFunction,Conductor*%
%TO.N,/12V*%
G36*
X63214103Y-83687602D02*
G01*
X63260596Y-83741258D01*
X63270700Y-83811532D01*
X63265815Y-83832536D01*
X63216058Y-83985672D01*
X63215368Y-83992233D01*
X63215368Y-83992235D01*
X63206998Y-84071877D01*
X63179985Y-84137534D01*
X63170783Y-84147802D01*
X59689124Y-87629461D01*
X59626812Y-87663487D01*
X59549385Y-87655740D01*
X59457545Y-87615425D01*
X59194166Y-87540400D01*
X59189924Y-87539796D01*
X59189918Y-87539795D01*
X58989434Y-87511262D01*
X58923043Y-87501813D01*
X58779189Y-87501060D01*
X58653477Y-87500402D01*
X58653471Y-87500402D01*
X58649191Y-87500380D01*
X58644947Y-87500939D01*
X58644943Y-87500939D01*
X58525902Y-87516611D01*
X58377678Y-87536125D01*
X58373538Y-87537258D01*
X58373536Y-87537258D01*
X58318164Y-87552406D01*
X58113528Y-87608388D01*
X58109580Y-87610072D01*
X57865582Y-87714146D01*
X57865578Y-87714148D01*
X57861630Y-87715832D01*
X57841725Y-87727745D01*
X57630325Y-87854264D01*
X57630321Y-87854267D01*
X57626643Y-87856468D01*
X57412918Y-88027694D01*
X57224408Y-88226342D01*
X57064602Y-88448736D01*
X56936457Y-88690761D01*
X56934985Y-88694784D01*
X56934983Y-88694788D01*
X56927914Y-88714106D01*
X56842343Y-88947937D01*
X56784004Y-89215507D01*
X56762517Y-89488518D01*
X56778282Y-89761920D01*
X56779107Y-89766125D01*
X56779108Y-89766133D01*
X56801766Y-89881622D01*
X56831005Y-90030653D01*
X56832392Y-90034703D01*
X56832393Y-90034708D01*
X56918257Y-90285494D01*
X56919712Y-90289744D01*
X56921639Y-90293575D01*
X57038335Y-90525600D01*
X57042760Y-90534399D01*
X57045186Y-90537928D01*
X57045189Y-90537934D01*
X57174341Y-90725850D01*
X57197874Y-90760090D01*
X57382182Y-90962643D01*
X57592275Y-91138307D01*
X57595916Y-91140591D01*
X57820624Y-91281551D01*
X57820628Y-91281553D01*
X57824264Y-91283834D01*
X57892144Y-91314483D01*
X58069945Y-91394764D01*
X58069949Y-91394766D01*
X58073857Y-91396530D01*
X58077977Y-91397750D01*
X58077976Y-91397750D01*
X58332323Y-91473091D01*
X58332327Y-91473092D01*
X58336436Y-91474309D01*
X58340670Y-91474957D01*
X58340675Y-91474958D01*
X58602898Y-91515083D01*
X58602900Y-91515083D01*
X58607140Y-91515732D01*
X58746512Y-91517922D01*
X58876671Y-91519967D01*
X58876677Y-91519967D01*
X58880962Y-91520034D01*
X59152835Y-91487134D01*
X59417727Y-91417641D01*
X59421687Y-91416001D01*
X59421692Y-91415999D01*
X59544231Y-91365241D01*
X59670736Y-91312841D01*
X59907182Y-91174673D01*
X60003367Y-91099254D01*
X62631218Y-91099254D01*
X62638273Y-91109227D01*
X62669279Y-91135151D01*
X62676198Y-91140179D01*
X62900872Y-91281115D01*
X62908407Y-91285156D01*
X63150120Y-91394294D01*
X63158151Y-91397280D01*
X63412432Y-91472602D01*
X63420784Y-91474469D01*
X63682940Y-91514584D01*
X63691474Y-91515300D01*
X63956645Y-91519467D01*
X63965196Y-91519018D01*
X64228483Y-91487157D01*
X64236884Y-91485555D01*
X64493424Y-91418253D01*
X64501526Y-91415526D01*
X64746549Y-91314034D01*
X64754217Y-91310228D01*
X64983198Y-91176422D01*
X64990279Y-91171609D01*
X65070255Y-91108901D01*
X65078725Y-91097042D01*
X65072208Y-91085418D01*
X63868412Y-89881622D01*
X63854468Y-89874008D01*
X63852635Y-89874139D01*
X63846020Y-89878390D01*
X62638510Y-91085900D01*
X62631218Y-91099254D01*
X60003367Y-91099254D01*
X60122689Y-91005694D01*
X60164409Y-90962643D01*
X60310286Y-90812109D01*
X60313269Y-90809031D01*
X60315802Y-90805583D01*
X60315806Y-90805578D01*
X60472857Y-90591778D01*
X60475395Y-90588323D01*
X60477441Y-90584555D01*
X60604018Y-90351430D01*
X60604019Y-90351428D01*
X60606068Y-90347654D01*
X60702869Y-90091477D01*
X60764007Y-89824533D01*
X60769984Y-89757569D01*
X60788131Y-89554227D01*
X60788132Y-89554216D01*
X60788351Y-89551761D01*
X60788793Y-89509600D01*
X60787648Y-89492804D01*
X61843265Y-89492804D01*
X61858532Y-89757569D01*
X61859605Y-89766070D01*
X61910665Y-90026322D01*
X61912876Y-90034574D01*
X61998784Y-90285494D01*
X62002099Y-90293379D01*
X62121264Y-90530313D01*
X62125620Y-90537679D01*
X62254947Y-90725850D01*
X62265201Y-90734194D01*
X62278942Y-90727048D01*
X63483578Y-89522412D01*
X63489956Y-89510732D01*
X64220008Y-89510732D01*
X64220139Y-89512565D01*
X64224390Y-89519180D01*
X65431330Y-90726120D01*
X65443539Y-90732787D01*
X65455039Y-90724097D01*
X65552431Y-90591513D01*
X65557018Y-90584285D01*
X65683562Y-90351221D01*
X65687130Y-90343427D01*
X65780871Y-90095350D01*
X65783348Y-90087144D01*
X65842554Y-89828638D01*
X65843894Y-89820177D01*
X65867631Y-89554216D01*
X65867877Y-89549277D01*
X65868266Y-89512085D01*
X65868123Y-89507119D01*
X65849962Y-89240723D01*
X65848801Y-89232249D01*
X65795019Y-88972544D01*
X65792720Y-88964309D01*
X65704188Y-88714305D01*
X65700791Y-88706454D01*
X65579150Y-88470778D01*
X65574722Y-88463466D01*
X65455631Y-88294017D01*
X65445109Y-88285637D01*
X65431721Y-88292689D01*
X64227622Y-89496788D01*
X64220008Y-89510732D01*
X63489956Y-89510732D01*
X63491192Y-89508468D01*
X63491061Y-89506635D01*
X63486810Y-89500020D01*
X62279414Y-88292624D01*
X62267404Y-88286066D01*
X62255664Y-88295034D01*
X62147535Y-88445511D01*
X62143018Y-88452796D01*
X62018925Y-88687167D01*
X62015439Y-88694995D01*
X61924300Y-88944046D01*
X61921911Y-88952270D01*
X61865412Y-89211395D01*
X61864163Y-89219850D01*
X61843354Y-89484253D01*
X61843265Y-89492804D01*
X60787648Y-89492804D01*
X60787356Y-89488518D01*
X60770459Y-89240655D01*
X60770458Y-89240649D01*
X60770167Y-89236378D01*
X60714632Y-88968212D01*
X60628450Y-88724842D01*
X60624566Y-88653951D01*
X60658128Y-88593687D01*
X61329715Y-87922100D01*
X62632184Y-87922100D01*
X62638580Y-87933370D01*
X63842788Y-89137578D01*
X63856732Y-89145192D01*
X63858565Y-89145061D01*
X63865180Y-89140810D01*
X65072204Y-87933786D01*
X65079395Y-87920617D01*
X65072073Y-87910380D01*
X65024833Y-87871715D01*
X65017861Y-87866760D01*
X64791722Y-87728182D01*
X64784152Y-87724224D01*
X64541304Y-87617622D01*
X64533244Y-87614720D01*
X64278192Y-87542067D01*
X64269814Y-87540285D01*
X64007256Y-87502918D01*
X63998711Y-87502291D01*
X63733508Y-87500902D01*
X63724974Y-87501439D01*
X63462033Y-87536056D01*
X63453635Y-87537749D01*
X63197838Y-87607727D01*
X63189743Y-87610546D01*
X62945799Y-87714597D01*
X62938177Y-87718481D01*
X62710613Y-87854675D01*
X62703581Y-87859562D01*
X62640653Y-87909977D01*
X62632184Y-87922100D01*
X61329715Y-87922100D01*
X63766505Y-85485310D01*
X63828817Y-85451284D01*
X63899632Y-85456349D01*
X63944695Y-85485310D01*
X67053971Y-88594586D01*
X67087997Y-88656898D01*
X67083202Y-88726981D01*
X67002343Y-88947937D01*
X66944004Y-89215507D01*
X66922517Y-89488518D01*
X66938282Y-89761920D01*
X66939107Y-89766125D01*
X66939108Y-89766133D01*
X66961766Y-89881622D01*
X66991005Y-90030653D01*
X66992392Y-90034703D01*
X66992393Y-90034708D01*
X67078257Y-90285494D01*
X67079712Y-90289744D01*
X67081639Y-90293575D01*
X67198335Y-90525600D01*
X67202760Y-90534399D01*
X67205186Y-90537928D01*
X67205189Y-90537934D01*
X67334341Y-90725850D01*
X67357874Y-90760090D01*
X67542182Y-90962643D01*
X67752275Y-91138307D01*
X67755916Y-91140591D01*
X67980624Y-91281551D01*
X67980628Y-91281553D01*
X67984264Y-91283834D01*
X68052144Y-91314483D01*
X68229945Y-91394764D01*
X68229949Y-91394766D01*
X68233857Y-91396530D01*
X68237977Y-91397750D01*
X68237976Y-91397750D01*
X68492323Y-91473091D01*
X68492327Y-91473092D01*
X68496436Y-91474309D01*
X68500670Y-91474957D01*
X68500675Y-91474958D01*
X68762898Y-91515083D01*
X68762900Y-91515083D01*
X68767140Y-91515732D01*
X68906512Y-91517922D01*
X69036671Y-91519967D01*
X69036677Y-91519967D01*
X69040962Y-91520034D01*
X69312835Y-91487134D01*
X69577727Y-91417641D01*
X69581687Y-91416001D01*
X69581692Y-91415999D01*
X69704231Y-91365241D01*
X69830736Y-91312841D01*
X70067182Y-91174673D01*
X70163367Y-91099254D01*
X72791218Y-91099254D01*
X72798273Y-91109227D01*
X72829279Y-91135151D01*
X72836198Y-91140179D01*
X73060872Y-91281115D01*
X73068407Y-91285156D01*
X73310120Y-91394294D01*
X73318151Y-91397280D01*
X73572432Y-91472602D01*
X73580784Y-91474469D01*
X73842940Y-91514584D01*
X73851474Y-91515300D01*
X74116645Y-91519467D01*
X74125196Y-91519018D01*
X74388483Y-91487157D01*
X74396884Y-91485555D01*
X74653424Y-91418253D01*
X74661526Y-91415526D01*
X74906549Y-91314034D01*
X74914217Y-91310228D01*
X75143198Y-91176422D01*
X75150279Y-91171609D01*
X75230255Y-91108901D01*
X75238725Y-91097042D01*
X75232208Y-91085418D01*
X74028412Y-89881622D01*
X74014468Y-89874008D01*
X74012635Y-89874139D01*
X74006020Y-89878390D01*
X72798510Y-91085900D01*
X72791218Y-91099254D01*
X70163367Y-91099254D01*
X70282689Y-91005694D01*
X70324409Y-90962643D01*
X70470286Y-90812109D01*
X70473269Y-90809031D01*
X70475802Y-90805583D01*
X70475806Y-90805578D01*
X70632857Y-90591778D01*
X70635395Y-90588323D01*
X70637441Y-90584555D01*
X70764018Y-90351430D01*
X70764019Y-90351428D01*
X70766068Y-90347654D01*
X70862869Y-90091477D01*
X70924007Y-89824533D01*
X70929984Y-89757569D01*
X70948131Y-89554227D01*
X70948132Y-89554216D01*
X70948351Y-89551761D01*
X70948793Y-89509600D01*
X70947648Y-89492804D01*
X72003265Y-89492804D01*
X72018532Y-89757569D01*
X72019605Y-89766070D01*
X72070665Y-90026322D01*
X72072876Y-90034574D01*
X72158784Y-90285494D01*
X72162099Y-90293379D01*
X72281264Y-90530313D01*
X72285620Y-90537679D01*
X72414947Y-90725850D01*
X72425201Y-90734194D01*
X72438942Y-90727048D01*
X73643578Y-89522412D01*
X73649956Y-89510732D01*
X74380008Y-89510732D01*
X74380139Y-89512565D01*
X74384390Y-89519180D01*
X75591330Y-90726120D01*
X75603539Y-90732787D01*
X75615039Y-90724097D01*
X75712431Y-90591513D01*
X75717018Y-90584285D01*
X75843562Y-90351221D01*
X75847130Y-90343427D01*
X75940871Y-90095350D01*
X75943348Y-90087144D01*
X76002554Y-89828638D01*
X76003894Y-89820177D01*
X76027631Y-89554216D01*
X76027877Y-89549277D01*
X76028266Y-89512085D01*
X76028123Y-89507119D01*
X76009962Y-89240723D01*
X76008801Y-89232249D01*
X75955019Y-88972544D01*
X75952720Y-88964309D01*
X75864188Y-88714305D01*
X75860791Y-88706454D01*
X75739150Y-88470778D01*
X75734722Y-88463466D01*
X75615631Y-88294017D01*
X75605109Y-88285637D01*
X75591721Y-88292689D01*
X74387622Y-89496788D01*
X74380008Y-89510732D01*
X73649956Y-89510732D01*
X73651192Y-89508468D01*
X73651061Y-89506635D01*
X73646810Y-89500020D01*
X72439414Y-88292624D01*
X72427404Y-88286066D01*
X72415664Y-88295034D01*
X72307535Y-88445511D01*
X72303018Y-88452796D01*
X72178925Y-88687167D01*
X72175439Y-88694995D01*
X72084300Y-88944046D01*
X72081911Y-88952270D01*
X72025412Y-89211395D01*
X72024163Y-89219850D01*
X72003354Y-89484253D01*
X72003265Y-89492804D01*
X70947648Y-89492804D01*
X70947356Y-89488518D01*
X70930459Y-89240655D01*
X70930458Y-89240649D01*
X70930167Y-89236378D01*
X70874632Y-88968212D01*
X70783217Y-88710065D01*
X70657613Y-88466712D01*
X70647640Y-88452521D01*
X70502608Y-88246162D01*
X70500145Y-88242657D01*
X70313725Y-88042045D01*
X70310410Y-88039331D01*
X70310406Y-88039328D01*
X70167181Y-87922100D01*
X72792184Y-87922100D01*
X72798580Y-87933370D01*
X74002788Y-89137578D01*
X74016732Y-89145192D01*
X74018565Y-89145061D01*
X74025180Y-89140810D01*
X75232204Y-87933786D01*
X75239395Y-87920617D01*
X75232073Y-87910380D01*
X75184833Y-87871715D01*
X75177861Y-87866760D01*
X74951722Y-87728182D01*
X74944152Y-87724224D01*
X74701304Y-87617622D01*
X74693244Y-87614720D01*
X74438192Y-87542067D01*
X74429814Y-87540285D01*
X74167256Y-87502918D01*
X74158711Y-87502291D01*
X73893508Y-87500902D01*
X73884974Y-87501439D01*
X73622033Y-87536056D01*
X73613635Y-87537749D01*
X73357838Y-87607727D01*
X73349743Y-87610546D01*
X73105799Y-87714597D01*
X73098177Y-87718481D01*
X72870613Y-87854675D01*
X72863581Y-87859562D01*
X72800653Y-87909977D01*
X72792184Y-87922100D01*
X70167181Y-87922100D01*
X70144979Y-87903928D01*
X70101805Y-87868590D01*
X69868304Y-87725501D01*
X69864368Y-87723773D01*
X69621473Y-87617149D01*
X69621469Y-87617148D01*
X69617545Y-87615425D01*
X69354166Y-87540400D01*
X69349924Y-87539796D01*
X69349918Y-87539795D01*
X69149434Y-87511262D01*
X69083043Y-87501813D01*
X68939189Y-87501060D01*
X68813477Y-87500402D01*
X68813471Y-87500402D01*
X68809191Y-87500380D01*
X68804947Y-87500939D01*
X68804943Y-87500939D01*
X68685902Y-87516611D01*
X68537678Y-87536125D01*
X68533538Y-87537258D01*
X68533536Y-87537258D01*
X68478164Y-87552406D01*
X68273528Y-87608388D01*
X68220066Y-87631192D01*
X68160810Y-87656467D01*
X68090304Y-87664796D01*
X68022280Y-87629665D01*
X67451671Y-87059056D01*
X70711600Y-87059056D01*
X70740691Y-87081258D01*
X70744054Y-87083916D01*
X70955974Y-87257371D01*
X70959248Y-87260145D01*
X70998244Y-87294345D01*
X71001418Y-87297226D01*
X71013912Y-87308959D01*
X71016986Y-87311946D01*
X71053551Y-87348703D01*
X71056523Y-87351794D01*
X71242943Y-87552406D01*
X71245807Y-87555595D01*
X71279780Y-87594744D01*
X71282534Y-87598029D01*
X71293321Y-87611349D01*
X71295964Y-87614728D01*
X71327224Y-87656135D01*
X71329750Y-87659602D01*
X71475249Y-87866627D01*
X71479135Y-87860812D01*
X71481577Y-87857289D01*
X71603151Y-87688101D01*
X71615083Y-87673846D01*
X71771306Y-87512980D01*
X71785206Y-87500635D01*
X71843496Y-87456105D01*
X71853245Y-87449359D01*
X71921509Y-87406729D01*
X71927016Y-87394175D01*
X71939108Y-87372637D01*
X71979766Y-87314435D01*
X71991086Y-87300470D01*
X72139329Y-87142157D01*
X72152522Y-87129944D01*
X72232937Y-87065520D01*
X72236330Y-87062896D01*
X72237600Y-87061948D01*
X72237600Y-86459600D01*
X70711600Y-86459600D01*
X70711600Y-87059056D01*
X67451671Y-87059056D01*
X65838215Y-85445600D01*
X68171600Y-85445600D01*
X69697600Y-85445600D01*
X70711600Y-85445600D01*
X72141089Y-85445600D01*
X71505089Y-84809600D01*
X70711600Y-84809600D01*
X70711600Y-85445600D01*
X69697600Y-85445600D01*
X69697600Y-84809600D01*
X68171600Y-84809600D01*
X68171600Y-85445600D01*
X65838215Y-85445600D01*
X64997657Y-84605042D01*
X64963631Y-84542730D01*
X64966919Y-84477011D01*
X65001102Y-84371806D01*
X65003142Y-84365528D01*
X65023104Y-84175600D01*
X65015868Y-84106750D01*
X65003832Y-83992235D01*
X65003832Y-83992233D01*
X65003142Y-83985672D01*
X64953385Y-83832536D01*
X64951357Y-83761569D01*
X64988020Y-83700771D01*
X65051732Y-83669445D01*
X65073218Y-83667600D01*
X71744909Y-83667600D01*
X71813030Y-83687602D01*
X71834004Y-83704505D01*
X74231679Y-86102179D01*
X74237533Y-86108444D01*
X74274125Y-86150390D01*
X74324490Y-86185786D01*
X74329755Y-86189698D01*
X74378163Y-86227655D01*
X74385087Y-86230781D01*
X74389396Y-86233391D01*
X74398811Y-86238762D01*
X74403259Y-86241147D01*
X74409474Y-86245515D01*
X74416551Y-86248274D01*
X74466792Y-86267862D01*
X74472864Y-86270414D01*
X74528940Y-86295734D01*
X74536417Y-86297120D01*
X74541237Y-86298630D01*
X74551653Y-86301598D01*
X74556533Y-86302851D01*
X74563607Y-86305609D01*
X74571138Y-86306601D01*
X74571140Y-86306601D01*
X74624612Y-86313641D01*
X74631125Y-86314673D01*
X74684134Y-86324497D01*
X74684136Y-86324497D01*
X74691603Y-86325881D01*
X74699184Y-86325444D01*
X74699185Y-86325444D01*
X74751478Y-86322429D01*
X74758730Y-86322220D01*
X77039200Y-86322220D01*
X77107321Y-86342222D01*
X77153814Y-86395878D01*
X77165200Y-86448220D01*
X77165200Y-87696387D01*
X77149844Y-87756412D01*
X77144985Y-87762895D01*
X77093855Y-87899284D01*
X77087100Y-87961466D01*
X77087100Y-91057734D01*
X77093855Y-91119916D01*
X77101451Y-91140179D01*
X77114383Y-91174673D01*
X77144985Y-91256305D01*
X77149844Y-91262788D01*
X77165200Y-91322813D01*
X77165200Y-92905589D01*
X77145198Y-92973710D01*
X77091542Y-93020203D01*
X77039200Y-93031589D01*
X56663410Y-93031589D01*
X56654841Y-93031297D01*
X56606907Y-93028029D01*
X56606903Y-93028029D01*
X56599331Y-93027513D01*
X56591854Y-93028818D01*
X56591851Y-93028818D01*
X56538718Y-93038091D01*
X56532194Y-93039054D01*
X56478674Y-93045531D01*
X56471130Y-93046444D01*
X56464020Y-93049131D01*
X56459117Y-93050335D01*
X56448631Y-93053203D01*
X56443839Y-93054650D01*
X56436361Y-93055955D01*
X56429409Y-93059007D01*
X56429408Y-93059007D01*
X56380024Y-93080684D01*
X56373919Y-93083175D01*
X56323483Y-93102234D01*
X56323480Y-93102236D01*
X56316376Y-93104920D01*
X56310119Y-93109220D01*
X56305651Y-93111556D01*
X56296205Y-93116814D01*
X56291839Y-93119396D01*
X56284880Y-93122451D01*
X56236061Y-93159912D01*
X56230742Y-93163775D01*
X56198109Y-93186204D01*
X56180039Y-93198623D01*
X56174988Y-93204292D01*
X56140133Y-93243412D01*
X56135152Y-93248687D01*
X54756141Y-94627698D01*
X54749876Y-94633552D01*
X54707930Y-94670144D01*
X54672534Y-94720509D01*
X54668622Y-94725774D01*
X54630665Y-94774182D01*
X54627539Y-94781106D01*
X54624929Y-94785415D01*
X54619558Y-94794830D01*
X54617173Y-94799278D01*
X54612805Y-94805493D01*
X54600777Y-94836344D01*
X54590458Y-94862811D01*
X54587908Y-94868878D01*
X54562586Y-94924959D01*
X54561200Y-94932436D01*
X54559690Y-94937256D01*
X54556718Y-94947689D01*
X54555470Y-94952550D01*
X54552711Y-94959626D01*
X54544780Y-95019874D01*
X54544682Y-95020616D01*
X54543650Y-95027132D01*
X54532439Y-95087621D01*
X54532876Y-95095201D01*
X54532876Y-95095202D01*
X54535891Y-95147496D01*
X54536100Y-95154748D01*
X54536100Y-95886000D01*
X54516098Y-95954121D01*
X54462442Y-96000614D01*
X54410100Y-96012000D01*
X46439600Y-96012000D01*
X46371479Y-95991998D01*
X46324986Y-95938342D01*
X46313600Y-95886000D01*
X46313600Y-95877715D01*
X46309125Y-95862476D01*
X46307735Y-95861271D01*
X46300052Y-95859600D01*
X43315715Y-95859600D01*
X43300476Y-95864075D01*
X43299271Y-95865465D01*
X43297600Y-95873148D01*
X43297600Y-95886000D01*
X43277598Y-95954121D01*
X43223942Y-96000614D01*
X43171600Y-96012000D01*
X40440100Y-96012000D01*
X40371979Y-95991998D01*
X40325486Y-95938342D01*
X40314100Y-95886000D01*
X40314100Y-95333485D01*
X43297600Y-95333485D01*
X43302075Y-95348724D01*
X43303465Y-95349929D01*
X43311148Y-95351600D01*
X44533485Y-95351600D01*
X44548724Y-95347125D01*
X44549929Y-95345735D01*
X44551600Y-95338052D01*
X44551600Y-95333485D01*
X45059600Y-95333485D01*
X45064075Y-95348724D01*
X45065465Y-95349929D01*
X45073148Y-95351600D01*
X46295485Y-95351600D01*
X46310724Y-95347125D01*
X46311929Y-95345735D01*
X46313600Y-95338052D01*
X46313600Y-94870000D01*
X47851600Y-94870000D01*
X49377600Y-94870000D01*
X50391600Y-94870000D01*
X51917600Y-94870000D01*
X52931600Y-94870000D01*
X53541504Y-94870000D01*
X53542390Y-94865222D01*
X53547385Y-94827278D01*
X53548601Y-94819791D01*
X53566019Y-94729761D01*
X53567683Y-94722362D01*
X53575212Y-94693036D01*
X53577317Y-94685753D01*
X53584013Y-94664956D01*
X53589280Y-94643755D01*
X53591328Y-94636457D01*
X53600382Y-94607565D01*
X53602868Y-94600396D01*
X53635513Y-94514684D01*
X53638426Y-94507679D01*
X53654165Y-94472821D01*
X53668070Y-94437157D01*
X53671037Y-94430174D01*
X53709430Y-94346894D01*
X53712811Y-94340106D01*
X53727118Y-94313423D01*
X53730904Y-94306845D01*
X53742364Y-94288254D01*
X53752534Y-94268924D01*
X53756268Y-94262319D01*
X53771952Y-94236422D01*
X53776075Y-94230055D01*
X53828219Y-94154610D01*
X53832717Y-94148503D01*
X53856319Y-94118402D01*
X53878322Y-94087095D01*
X53882867Y-94081025D01*
X53884002Y-94079600D01*
X52931600Y-94079600D01*
X52931600Y-94870000D01*
X51917600Y-94870000D01*
X51917600Y-94079600D01*
X50391600Y-94079600D01*
X50391600Y-94870000D01*
X49377600Y-94870000D01*
X49377600Y-94079600D01*
X47851600Y-94079600D01*
X47851600Y-94870000D01*
X46313600Y-94870000D01*
X46313600Y-94547144D01*
X46313398Y-94542112D01*
X46299450Y-94368757D01*
X46297838Y-94358804D01*
X46242367Y-94132967D01*
X46239184Y-94123397D01*
X46148320Y-93909335D01*
X46143645Y-93900393D01*
X46019726Y-93703613D01*
X46013686Y-93695540D01*
X45859897Y-93521100D01*
X45852644Y-93514096D01*
X45672946Y-93366490D01*
X45664664Y-93360734D01*
X45463681Y-93243759D01*
X45454576Y-93239397D01*
X45237485Y-93156063D01*
X45227796Y-93153212D01*
X45077336Y-93121779D01*
X45063275Y-93122902D01*
X45059600Y-93133010D01*
X45059600Y-95333485D01*
X44551600Y-95333485D01*
X44551600Y-93135010D01*
X44547464Y-93120924D01*
X44534486Y-93118875D01*
X44516770Y-93120925D01*
X44506873Y-93122885D01*
X44283106Y-93186204D01*
X44273662Y-93189716D01*
X44062895Y-93287999D01*
X44054129Y-93292978D01*
X43861798Y-93423687D01*
X43853923Y-93430019D01*
X43684974Y-93589786D01*
X43678213Y-93597295D01*
X43536975Y-93782026D01*
X43531511Y-93790505D01*
X43421622Y-93995447D01*
X43417580Y-94004699D01*
X43341873Y-94224571D01*
X43339364Y-94234343D01*
X43299596Y-94464571D01*
X43298741Y-94472443D01*
X43297664Y-94496151D01*
X43297600Y-94498984D01*
X43297600Y-95333485D01*
X40314100Y-95333485D01*
X40314100Y-94544599D01*
X40311693Y-94514684D01*
X40299946Y-94368676D01*
X40299945Y-94368671D01*
X40299540Y-94363635D01*
X40284766Y-94303483D01*
X40242844Y-94132808D01*
X40241637Y-94127894D01*
X40221743Y-94081025D01*
X40148765Y-93909102D01*
X40146788Y-93904444D01*
X40069526Y-93781754D01*
X40020128Y-93703312D01*
X40020126Y-93703309D01*
X40017433Y-93699033D01*
X39927740Y-93597295D01*
X39860250Y-93520742D01*
X39860247Y-93520739D01*
X39856902Y-93516945D01*
X39750593Y-93429622D01*
X39673228Y-93366074D01*
X39673225Y-93366072D01*
X39669322Y-93362866D01*
X39473144Y-93248687D01*
X39463890Y-93243301D01*
X39463888Y-93243300D01*
X39459522Y-93240759D01*
X39454799Y-93238946D01*
X39237622Y-93155580D01*
X39237618Y-93155579D01*
X39232898Y-93153767D01*
X39227948Y-93152733D01*
X39227945Y-93152732D01*
X39000231Y-93105160D01*
X39000227Y-93105160D01*
X38995280Y-93104126D01*
X38752783Y-93093114D01*
X38747763Y-93093695D01*
X38747759Y-93093695D01*
X38516671Y-93120433D01*
X38516667Y-93120434D01*
X38511644Y-93121015D01*
X38506780Y-93122391D01*
X38506777Y-93122392D01*
X38395900Y-93153767D01*
X38278068Y-93187110D01*
X38273492Y-93189244D01*
X38273486Y-93189246D01*
X38062646Y-93287562D01*
X38062642Y-93287564D01*
X38058064Y-93289699D01*
X37857293Y-93426144D01*
X37680919Y-93592932D01*
X37677841Y-93596958D01*
X37677840Y-93596959D01*
X37536553Y-93781754D01*
X37536550Y-93781758D01*
X37533480Y-93785774D01*
X37531090Y-93790232D01*
X37531089Y-93790233D01*
X37472147Y-93900160D01*
X37418769Y-93999709D01*
X37339738Y-94229231D01*
X37338876Y-94234223D01*
X37303824Y-94437157D01*
X37298421Y-94468436D01*
X37297100Y-94497525D01*
X37297100Y-95886000D01*
X37277098Y-95954121D01*
X37223442Y-96000614D01*
X37171100Y-96012000D01*
X36021952Y-96012000D01*
X35953831Y-95991998D01*
X35907338Y-95938342D01*
X35897504Y-95866286D01*
X35898054Y-95862814D01*
X35899209Y-95858003D01*
X35919074Y-95605600D01*
X35899209Y-95353197D01*
X35897752Y-95347125D01*
X35841260Y-95111821D01*
X35840105Y-95107009D01*
X35838211Y-95102436D01*
X35745111Y-94877672D01*
X35745109Y-94877668D01*
X35743216Y-94873098D01*
X35610928Y-94657224D01*
X35453432Y-94472821D01*
X35449706Y-94468458D01*
X35446498Y-94464702D01*
X35253976Y-94300272D01*
X35038102Y-94167984D01*
X35033532Y-94166091D01*
X35033528Y-94166089D01*
X34808764Y-94072989D01*
X34808762Y-94072988D01*
X34804191Y-94071095D01*
X34679731Y-94041215D01*
X34562816Y-94013146D01*
X34562810Y-94013145D01*
X34558003Y-94011991D01*
X34458184Y-94004135D01*
X34371255Y-93997293D01*
X34371248Y-93997293D01*
X34368799Y-93997100D01*
X34242401Y-93997100D01*
X34239952Y-93997293D01*
X34239945Y-93997293D01*
X34153016Y-94004135D01*
X34053197Y-94011991D01*
X34048390Y-94013145D01*
X34048384Y-94013146D01*
X33931469Y-94041215D01*
X33807009Y-94071095D01*
X33802438Y-94072988D01*
X33802436Y-94072989D01*
X33577672Y-94166089D01*
X33577668Y-94166091D01*
X33573098Y-94167984D01*
X33357224Y-94300272D01*
X33164702Y-94464702D01*
X33161494Y-94468458D01*
X33157768Y-94472821D01*
X33000272Y-94657224D01*
X32867984Y-94873098D01*
X32866091Y-94877668D01*
X32866089Y-94877672D01*
X32772989Y-95102436D01*
X32771095Y-95107009D01*
X32769940Y-95111821D01*
X32713449Y-95347125D01*
X32711991Y-95353197D01*
X32692126Y-95605600D01*
X32711991Y-95858003D01*
X32713146Y-95862814D01*
X32713696Y-95866286D01*
X32704599Y-95936697D01*
X32658878Y-95991013D01*
X32589248Y-96012000D01*
X29945600Y-96012000D01*
X29877479Y-95991998D01*
X29830986Y-95938342D01*
X29819600Y-95886000D01*
X29819600Y-94870000D01*
X30833600Y-94870000D01*
X31597600Y-94870000D01*
X31597600Y-94079600D01*
X30833600Y-94079600D01*
X30833600Y-94870000D01*
X29819600Y-94870000D01*
X29819600Y-93065600D01*
X30833600Y-93065600D01*
X31597600Y-93065600D01*
X32611600Y-93065600D01*
X33651567Y-93065600D01*
X35151600Y-93065600D01*
X36677600Y-93065600D01*
X36677600Y-92519636D01*
X40231600Y-92519636D01*
X40235291Y-92521987D01*
X40239502Y-92524790D01*
X40256097Y-92536324D01*
X40260191Y-92539293D01*
X40308966Y-92576182D01*
X40312937Y-92579312D01*
X40500517Y-92733391D01*
X40504360Y-92736680D01*
X40550043Y-92777382D01*
X40553754Y-92780824D01*
X40568292Y-92794864D01*
X40571858Y-92798449D01*
X40614098Y-92842653D01*
X40617516Y-92846377D01*
X40778047Y-93028465D01*
X40781314Y-93032323D01*
X40808358Y-93065600D01*
X41757600Y-93065600D01*
X42771600Y-93065600D01*
X42808313Y-93065600D01*
X42875756Y-92977389D01*
X42878908Y-92973433D01*
X42917972Y-92926380D01*
X42921279Y-92922555D01*
X42934802Y-92907536D01*
X42938262Y-92903846D01*
X42980981Y-92860070D01*
X42984585Y-92856522D01*
X43160900Y-92689789D01*
X43164643Y-92686389D01*
X43210716Y-92646196D01*
X43214591Y-92642949D01*
X43230341Y-92630285D01*
X43234347Y-92627195D01*
X43283527Y-92590803D01*
X43287653Y-92587876D01*
X43488358Y-92451477D01*
X43492597Y-92448719D01*
X43544517Y-92416401D01*
X43548864Y-92413815D01*
X43566437Y-92403832D01*
X43570884Y-92401422D01*
X43625236Y-92373369D01*
X43629776Y-92371140D01*
X43849707Y-92268584D01*
X43854332Y-92266540D01*
X43910751Y-92242939D01*
X43915455Y-92241081D01*
X43934398Y-92234036D01*
X43939173Y-92232368D01*
X43997314Y-92213364D01*
X44002153Y-92211889D01*
X44235652Y-92145816D01*
X44240546Y-92144537D01*
X44280984Y-92134829D01*
X45311600Y-92134829D01*
X45440113Y-92161677D01*
X45445042Y-92162810D01*
X45504354Y-92177708D01*
X45509233Y-92179038D01*
X45528621Y-92184744D01*
X45533444Y-92186269D01*
X45591383Y-92205880D01*
X45596140Y-92207598D01*
X45822689Y-92294562D01*
X45827371Y-92296468D01*
X45883531Y-92320653D01*
X45888136Y-92322746D01*
X45906362Y-92331478D01*
X45910879Y-92333755D01*
X45964943Y-92362380D01*
X45969365Y-92364836D01*
X46179096Y-92486902D01*
X46183417Y-92489534D01*
X46235013Y-92522405D01*
X46239224Y-92525209D01*
X46255820Y-92536744D01*
X46259913Y-92539712D01*
X46308683Y-92576597D01*
X46312654Y-92579728D01*
X46500171Y-92733757D01*
X46504015Y-92737045D01*
X46549675Y-92777727D01*
X46553381Y-92781166D01*
X46567919Y-92795205D01*
X46571486Y-92798790D01*
X46613745Y-92843011D01*
X46617166Y-92846738D01*
X46777644Y-93028765D01*
X46780910Y-93032623D01*
X46807711Y-93065600D01*
X46837600Y-93065600D01*
X47851600Y-93065600D01*
X49377600Y-93065600D01*
X50391600Y-93065600D01*
X51917600Y-93065600D01*
X52931600Y-93065600D01*
X54457600Y-93065600D01*
X54457600Y-92475360D01*
X55471600Y-92475360D01*
X55493192Y-92453881D01*
X55498729Y-92448695D01*
X55521438Y-92428675D01*
X55527276Y-92423833D01*
X55599580Y-92367445D01*
X55605697Y-92362964D01*
X55637232Y-92341289D01*
X55667599Y-92317989D01*
X55673751Y-92313556D01*
X55749730Y-92262210D01*
X55756140Y-92258154D01*
X55782198Y-92242743D01*
X55788842Y-92239079D01*
X55808277Y-92229113D01*
X55826993Y-92217844D01*
X55833610Y-92214127D01*
X55860440Y-92200101D01*
X55867264Y-92196791D01*
X55950933Y-92159276D01*
X55957943Y-92156383D01*
X55993757Y-92142850D01*
X56028796Y-92127469D01*
X56035829Y-92124631D01*
X56121867Y-92092890D01*
X56129061Y-92090480D01*
X56158043Y-92081730D01*
X56165367Y-92079757D01*
X56186627Y-92074712D01*
X56207470Y-92068240D01*
X56214778Y-92066210D01*
X56244177Y-92058989D01*
X56251595Y-92057402D01*
X56341805Y-92040927D01*
X56349304Y-92039790D01*
X56387271Y-92035195D01*
X56425005Y-92028610D01*
X56432515Y-92027531D01*
X56523646Y-92017230D01*
X56531205Y-92016606D01*
X56561436Y-92015022D01*
X56569018Y-92014853D01*
X56660713Y-92015573D01*
X56668293Y-92015861D01*
X56693642Y-92017589D01*
X56997600Y-92017589D01*
X60551600Y-92017589D01*
X62077600Y-92017589D01*
X65631600Y-92017589D01*
X67157600Y-92017589D01*
X70711600Y-92017589D01*
X72237600Y-92017589D01*
X72237600Y-91958644D01*
X72229767Y-91952953D01*
X72226343Y-91950375D01*
X72185475Y-91918501D01*
X72182142Y-91915809D01*
X72135271Y-91876619D01*
X72123477Y-91865386D01*
X71990191Y-91720890D01*
X71979945Y-91708230D01*
X71942711Y-91655599D01*
X71937496Y-91647600D01*
X71906942Y-91596617D01*
X71836550Y-91559367D01*
X71815957Y-91545730D01*
X71808424Y-91539600D01*
X71177307Y-91539600D01*
X71010869Y-91711350D01*
X71007832Y-91714379D01*
X70970489Y-91750377D01*
X70967351Y-91753301D01*
X70954613Y-91764770D01*
X70951379Y-91767583D01*
X70911691Y-91800944D01*
X70908362Y-91803647D01*
X70711600Y-91957928D01*
X70711600Y-92017589D01*
X67157600Y-92017589D01*
X67157600Y-91959262D01*
X67149508Y-91953383D01*
X67146082Y-91950804D01*
X67105184Y-91918909D01*
X67101848Y-91916214D01*
X66891755Y-91740550D01*
X66888513Y-91737744D01*
X66849890Y-91703151D01*
X66846745Y-91700237D01*
X66834373Y-91688373D01*
X66831328Y-91685352D01*
X66795134Y-91648198D01*
X66792194Y-91645075D01*
X66696220Y-91539600D01*
X66057755Y-91539600D01*
X66023546Y-91565451D01*
X66014042Y-91571972D01*
X65947792Y-91613104D01*
X65938444Y-91633821D01*
X65926127Y-91655230D01*
X65884862Y-91713003D01*
X65873396Y-91726850D01*
X65723502Y-91883604D01*
X65710182Y-91895677D01*
X65631600Y-91957293D01*
X65631600Y-92017589D01*
X62077600Y-92017589D01*
X62077600Y-91958644D01*
X62069767Y-91952953D01*
X62066343Y-91950375D01*
X62025475Y-91918501D01*
X62022142Y-91915809D01*
X61975271Y-91876619D01*
X61963477Y-91865386D01*
X61830191Y-91720890D01*
X61819945Y-91708230D01*
X61782711Y-91655599D01*
X61777496Y-91647600D01*
X61746942Y-91596617D01*
X61676550Y-91559367D01*
X61655957Y-91545730D01*
X61648424Y-91539600D01*
X61017307Y-91539600D01*
X60850869Y-91711350D01*
X60847832Y-91714379D01*
X60810489Y-91750377D01*
X60807351Y-91753301D01*
X60794613Y-91764770D01*
X60791379Y-91767583D01*
X60751691Y-91800944D01*
X60748362Y-91803647D01*
X60551600Y-91957928D01*
X60551600Y-92017589D01*
X56997600Y-92017589D01*
X56997600Y-91959262D01*
X56989508Y-91953383D01*
X56986082Y-91950804D01*
X56945184Y-91918909D01*
X56941848Y-91916214D01*
X56731755Y-91740550D01*
X56728513Y-91737744D01*
X56689890Y-91703151D01*
X56686745Y-91700237D01*
X56674373Y-91688373D01*
X56671328Y-91685352D01*
X56635134Y-91648198D01*
X56632194Y-91645075D01*
X56536220Y-91539600D01*
X55897755Y-91539600D01*
X55863546Y-91565451D01*
X55854042Y-91571972D01*
X55787792Y-91613104D01*
X55778444Y-91633821D01*
X55766127Y-91655230D01*
X55724862Y-91713003D01*
X55713396Y-91726850D01*
X55563502Y-91883604D01*
X55550182Y-91895677D01*
X55471600Y-91957293D01*
X55471600Y-92475360D01*
X54457600Y-92475360D01*
X54457600Y-92433991D01*
X54330053Y-92467452D01*
X54325885Y-92468470D01*
X54275270Y-92479922D01*
X54271068Y-92480797D01*
X54254231Y-92484008D01*
X54250008Y-92484740D01*
X54198803Y-92492711D01*
X54194559Y-92493297D01*
X53922754Y-92526189D01*
X53918490Y-92526632D01*
X53866825Y-92531107D01*
X53862546Y-92531404D01*
X53845430Y-92532301D01*
X53841144Y-92532453D01*
X53789295Y-92533403D01*
X53785008Y-92533408D01*
X53511254Y-92529107D01*
X53506968Y-92528967D01*
X53455186Y-92526389D01*
X53450909Y-92526103D01*
X53433829Y-92524669D01*
X53429562Y-92524238D01*
X53378054Y-92518142D01*
X53373804Y-92517565D01*
X53103167Y-92476152D01*
X53098941Y-92475432D01*
X53047973Y-92465848D01*
X53043771Y-92464983D01*
X53027044Y-92461244D01*
X53022877Y-92460238D01*
X52972685Y-92447211D01*
X52968553Y-92446063D01*
X52931600Y-92435117D01*
X52931600Y-93065600D01*
X51917600Y-93065600D01*
X51917600Y-91958644D01*
X51909767Y-91952953D01*
X51906343Y-91950375D01*
X51865475Y-91918501D01*
X51862142Y-91915809D01*
X51815271Y-91876619D01*
X51803477Y-91865386D01*
X51670191Y-91720890D01*
X51659945Y-91708230D01*
X51622711Y-91655599D01*
X51617496Y-91647600D01*
X51586942Y-91596617D01*
X51516550Y-91559367D01*
X51495957Y-91545730D01*
X51488424Y-91539600D01*
X50391600Y-91539600D01*
X50391600Y-93065600D01*
X49377600Y-93065600D01*
X49377600Y-91539600D01*
X47851600Y-91539600D01*
X47851600Y-93065600D01*
X46837600Y-93065600D01*
X46837600Y-91539600D01*
X45311600Y-91539600D01*
X45311600Y-92134829D01*
X44280984Y-92134829D01*
X44297600Y-92130840D01*
X44297600Y-91539600D01*
X42771600Y-91539600D01*
X42771600Y-93065600D01*
X41757600Y-93065600D01*
X41757600Y-91539600D01*
X40231600Y-91539600D01*
X40231600Y-92519636D01*
X36677600Y-92519636D01*
X36677600Y-92341758D01*
X37691600Y-92341758D01*
X37849534Y-92268113D01*
X37854159Y-92266068D01*
X37910576Y-92242468D01*
X37915280Y-92240611D01*
X37934223Y-92233566D01*
X37938999Y-92231898D01*
X37997139Y-92212895D01*
X38001977Y-92211420D01*
X38235553Y-92145325D01*
X38240447Y-92144046D01*
X38299934Y-92129765D01*
X38304876Y-92128683D01*
X38324701Y-92124758D01*
X38329679Y-92123876D01*
X38390086Y-92114417D01*
X38395097Y-92113735D01*
X38636236Y-92085834D01*
X38641272Y-92085354D01*
X38702274Y-92080768D01*
X38707325Y-92080490D01*
X38727523Y-92079785D01*
X38732577Y-92079710D01*
X38793725Y-92080030D01*
X38798782Y-92080158D01*
X39041279Y-92091170D01*
X39046325Y-92091500D01*
X39107261Y-92096724D01*
X39112291Y-92097258D01*
X39132342Y-92099791D01*
X39137347Y-92100525D01*
X39197670Y-92110620D01*
X39202639Y-92111555D01*
X39217600Y-92114681D01*
X39217600Y-91539600D01*
X37691600Y-91539600D01*
X37691600Y-92341758D01*
X36677600Y-92341758D01*
X36677600Y-91539600D01*
X35151600Y-91539600D01*
X35151600Y-93065600D01*
X33651567Y-93065600D01*
X33816485Y-93026007D01*
X33821317Y-93024947D01*
X33879995Y-93013275D01*
X33884866Y-93012405D01*
X33904394Y-93009312D01*
X33909295Y-93008634D01*
X33968714Y-93001601D01*
X33973638Y-93001116D01*
X34137600Y-92988212D01*
X34137600Y-91539600D01*
X32611600Y-91539600D01*
X32611600Y-93065600D01*
X31597600Y-93065600D01*
X31597600Y-91539600D01*
X30833600Y-91539600D01*
X30833600Y-93065600D01*
X29819600Y-93065600D01*
X29819600Y-91099254D01*
X52471218Y-91099254D01*
X52478273Y-91109227D01*
X52509279Y-91135151D01*
X52516198Y-91140179D01*
X52740872Y-91281115D01*
X52748407Y-91285156D01*
X52990120Y-91394294D01*
X52998151Y-91397280D01*
X53252432Y-91472602D01*
X53260784Y-91474469D01*
X53522940Y-91514584D01*
X53531474Y-91515300D01*
X53796645Y-91519467D01*
X53805196Y-91519018D01*
X54068483Y-91487157D01*
X54076884Y-91485555D01*
X54333424Y-91418253D01*
X54341526Y-91415526D01*
X54586549Y-91314034D01*
X54594217Y-91310228D01*
X54823198Y-91176422D01*
X54830279Y-91171609D01*
X54910255Y-91108901D01*
X54918725Y-91097042D01*
X54912208Y-91085418D01*
X53708412Y-89881622D01*
X53694468Y-89874008D01*
X53692635Y-89874139D01*
X53686020Y-89878390D01*
X52478510Y-91085900D01*
X52471218Y-91099254D01*
X29819600Y-91099254D01*
X29819600Y-90525600D01*
X30833600Y-90525600D01*
X31597600Y-90525600D01*
X32611600Y-90525600D01*
X34137600Y-90525600D01*
X35151600Y-90525600D01*
X36677600Y-90525600D01*
X37691600Y-90525600D01*
X39217600Y-90525600D01*
X40231600Y-90525600D01*
X41757600Y-90525600D01*
X42771600Y-90525600D01*
X44297600Y-90525600D01*
X45311600Y-90525600D01*
X46837600Y-90525600D01*
X47851600Y-90525600D01*
X49377600Y-90525600D01*
X50391600Y-90525600D01*
X50849206Y-90525600D01*
X50792157Y-90358972D01*
X50790837Y-90354891D01*
X50775721Y-90305292D01*
X50774542Y-90301172D01*
X50770106Y-90284617D01*
X50769066Y-90280457D01*
X50757355Y-90229934D01*
X50756458Y-90225740D01*
X50703748Y-89957074D01*
X50702994Y-89952853D01*
X50694746Y-89901646D01*
X50694136Y-89897399D01*
X50691988Y-89880394D01*
X50691523Y-89876131D01*
X50686780Y-89824503D01*
X50686461Y-89820229D01*
X50670700Y-89546896D01*
X50670526Y-89542613D01*
X50669352Y-89492804D01*
X51683265Y-89492804D01*
X51698532Y-89757569D01*
X51699605Y-89766070D01*
X51750665Y-90026322D01*
X51752876Y-90034574D01*
X51838784Y-90285494D01*
X51842099Y-90293379D01*
X51961264Y-90530313D01*
X51965620Y-90537679D01*
X52094947Y-90725850D01*
X52105201Y-90734194D01*
X52118942Y-90727048D01*
X53323578Y-89522412D01*
X53329956Y-89510732D01*
X54060008Y-89510732D01*
X54060139Y-89512565D01*
X54064390Y-89519180D01*
X55271330Y-90726120D01*
X55283539Y-90732787D01*
X55295039Y-90724097D01*
X55392431Y-90591513D01*
X55397018Y-90584285D01*
X55523562Y-90351221D01*
X55527130Y-90343427D01*
X55620871Y-90095350D01*
X55623348Y-90087144D01*
X55682554Y-89828638D01*
X55683894Y-89820177D01*
X55707631Y-89554216D01*
X55707877Y-89549277D01*
X55708266Y-89512085D01*
X55708123Y-89507119D01*
X55689962Y-89240723D01*
X55688801Y-89232249D01*
X55635019Y-88972544D01*
X55632720Y-88964309D01*
X55544188Y-88714305D01*
X55540791Y-88706454D01*
X55419150Y-88470778D01*
X55414722Y-88463466D01*
X55295631Y-88294017D01*
X55285109Y-88285637D01*
X55271721Y-88292689D01*
X54067622Y-89496788D01*
X54060008Y-89510732D01*
X53329956Y-89510732D01*
X53331192Y-89508468D01*
X53331061Y-89506635D01*
X53326810Y-89500020D01*
X52119414Y-88292624D01*
X52107404Y-88286066D01*
X52095664Y-88295034D01*
X51987535Y-88445511D01*
X51983018Y-88452796D01*
X51858925Y-88687167D01*
X51855439Y-88694995D01*
X51764300Y-88944046D01*
X51761911Y-88952270D01*
X51705412Y-89211395D01*
X51704163Y-89219850D01*
X51683354Y-89484253D01*
X51683265Y-89492804D01*
X50669352Y-89492804D01*
X50669304Y-89490789D01*
X50669276Y-89486503D01*
X50669455Y-89469364D01*
X50669573Y-89465077D01*
X50671880Y-89413250D01*
X50672143Y-89408967D01*
X50693624Y-89136023D01*
X50694033Y-89131755D01*
X50699859Y-89080218D01*
X50700414Y-89075964D01*
X50702918Y-89059008D01*
X50703617Y-89054777D01*
X50712934Y-89003767D01*
X50713768Y-88999600D01*
X50391600Y-88999600D01*
X50391600Y-90525600D01*
X49377600Y-90525600D01*
X49377600Y-88999600D01*
X47851600Y-88999600D01*
X47851600Y-90525600D01*
X46837600Y-90525600D01*
X46837600Y-88999600D01*
X45311600Y-88999600D01*
X45311600Y-90525600D01*
X44297600Y-90525600D01*
X44297600Y-88999600D01*
X42771600Y-88999600D01*
X42771600Y-90525600D01*
X41757600Y-90525600D01*
X41757600Y-88999600D01*
X40231600Y-88999600D01*
X40231600Y-90525600D01*
X39217600Y-90525600D01*
X39217600Y-88999600D01*
X37691600Y-88999600D01*
X37691600Y-90525600D01*
X36677600Y-90525600D01*
X36677600Y-88999600D01*
X35151600Y-88999600D01*
X35151600Y-90525600D01*
X34137600Y-90525600D01*
X34137600Y-88999600D01*
X32611600Y-88999600D01*
X32611600Y-90525600D01*
X31597600Y-90525600D01*
X31597600Y-88999600D01*
X30833600Y-88999600D01*
X30833600Y-90525600D01*
X29819600Y-90525600D01*
X29819600Y-87985600D01*
X30833600Y-87985600D01*
X31597600Y-87985600D01*
X32611600Y-87985600D01*
X34137600Y-87985600D01*
X35151600Y-87985600D01*
X36677600Y-87985600D01*
X37691600Y-87985600D01*
X39217600Y-87985600D01*
X40231600Y-87985600D01*
X41757600Y-87985600D01*
X42771600Y-87985600D01*
X44297600Y-87985600D01*
X45311600Y-87985600D01*
X46837600Y-87985600D01*
X47851600Y-87985600D01*
X49377600Y-87985600D01*
X50391600Y-87985600D01*
X51083023Y-87985600D01*
X51088891Y-87974518D01*
X51090961Y-87970763D01*
X51116773Y-87925784D01*
X51118971Y-87922101D01*
X51118972Y-87922100D01*
X52472184Y-87922100D01*
X52478580Y-87933370D01*
X53682788Y-89137578D01*
X53696732Y-89145192D01*
X53698565Y-89145061D01*
X53705180Y-89140810D01*
X54912204Y-87933786D01*
X54919395Y-87920617D01*
X54912073Y-87910380D01*
X54864833Y-87871715D01*
X54857861Y-87866760D01*
X54631722Y-87728182D01*
X54624152Y-87724224D01*
X54381304Y-87617622D01*
X54373244Y-87614720D01*
X54118192Y-87542067D01*
X54109814Y-87540285D01*
X53847256Y-87502918D01*
X53838711Y-87502291D01*
X53573508Y-87500902D01*
X53564974Y-87501439D01*
X53302033Y-87536056D01*
X53293635Y-87537749D01*
X53037838Y-87607727D01*
X53029743Y-87610546D01*
X52785799Y-87714597D01*
X52778177Y-87718481D01*
X52550613Y-87854675D01*
X52543581Y-87859562D01*
X52480653Y-87909977D01*
X52472184Y-87922100D01*
X51118972Y-87922100D01*
X51128003Y-87907534D01*
X51130325Y-87903928D01*
X51159135Y-87860812D01*
X51161577Y-87857289D01*
X51283151Y-87688101D01*
X51295083Y-87673846D01*
X51451306Y-87512980D01*
X51465206Y-87500635D01*
X51523496Y-87456105D01*
X51533245Y-87449359D01*
X51601509Y-87406729D01*
X51607016Y-87394175D01*
X51619108Y-87372637D01*
X51659766Y-87314435D01*
X51671086Y-87300470D01*
X51819329Y-87142157D01*
X51832522Y-87129944D01*
X51912937Y-87065520D01*
X51916330Y-87062896D01*
X51917600Y-87061948D01*
X51917600Y-87059687D01*
X55471600Y-87059687D01*
X55500401Y-87081668D01*
X55503763Y-87084325D01*
X55567264Y-87136300D01*
X55579400Y-87147650D01*
X55716523Y-87293985D01*
X55727061Y-87306832D01*
X55765311Y-87360304D01*
X55770739Y-87368558D01*
X55803261Y-87422504D01*
X55865255Y-87454482D01*
X55885991Y-87467902D01*
X55941526Y-87512133D01*
X55954754Y-87524308D01*
X56103456Y-87682205D01*
X56114817Y-87696139D01*
X56234642Y-87866632D01*
X56238706Y-87860549D01*
X56241148Y-87857026D01*
X56400954Y-87634632D01*
X56403516Y-87631192D01*
X56435198Y-87590127D01*
X56437875Y-87586777D01*
X56448801Y-87573570D01*
X56451590Y-87570313D01*
X56485981Y-87531510D01*
X56488879Y-87528350D01*
X56677389Y-87329702D01*
X56680393Y-87326643D01*
X56717349Y-87290263D01*
X56720456Y-87287307D01*
X56733072Y-87275706D01*
X56736276Y-87272858D01*
X56775620Y-87239076D01*
X56778921Y-87236338D01*
X56992646Y-87065112D01*
X56996039Y-87062487D01*
X56997600Y-87061321D01*
X56997600Y-86459600D01*
X55471600Y-86459600D01*
X55471600Y-87059687D01*
X51917600Y-87059687D01*
X51917600Y-86459600D01*
X50391600Y-86459600D01*
X50391600Y-87985600D01*
X49377600Y-87985600D01*
X49377600Y-86459600D01*
X47851600Y-86459600D01*
X47851600Y-87985600D01*
X46837600Y-87985600D01*
X46837600Y-86459600D01*
X45311600Y-86459600D01*
X45311600Y-87985600D01*
X44297600Y-87985600D01*
X44297600Y-86459600D01*
X42771600Y-86459600D01*
X42771600Y-87985600D01*
X41757600Y-87985600D01*
X41757600Y-86459600D01*
X40231600Y-86459600D01*
X40231600Y-87985600D01*
X39217600Y-87985600D01*
X39217600Y-86459600D01*
X37691600Y-86459600D01*
X37691600Y-87985600D01*
X36677600Y-87985600D01*
X36677600Y-86459600D01*
X35151600Y-86459600D01*
X35151600Y-87985600D01*
X34137600Y-87985600D01*
X34137600Y-86459600D01*
X32611600Y-86459600D01*
X32611600Y-87985600D01*
X31597600Y-87985600D01*
X31597600Y-86459600D01*
X30833600Y-86459600D01*
X30833600Y-87985600D01*
X29819600Y-87985600D01*
X29819600Y-85445600D01*
X32611600Y-85445600D01*
X34137600Y-85445600D01*
X35151600Y-85445600D01*
X36677600Y-85445600D01*
X37691600Y-85445600D01*
X39217600Y-85445600D01*
X40231600Y-85445600D01*
X41757600Y-85445600D01*
X42771600Y-85445600D01*
X44297600Y-85445600D01*
X45311600Y-85445600D01*
X46837600Y-85445600D01*
X47851600Y-85445600D01*
X49377600Y-85445600D01*
X50391600Y-85445600D01*
X51917600Y-85445600D01*
X52931600Y-85445600D01*
X54457600Y-85445600D01*
X55471600Y-85445600D01*
X56997600Y-85445600D01*
X58011600Y-85445600D01*
X59537600Y-85445600D01*
X59537600Y-84809600D01*
X58011600Y-84809600D01*
X58011600Y-85445600D01*
X56997600Y-85445600D01*
X56997600Y-84809600D01*
X55471600Y-84809600D01*
X55471600Y-85445600D01*
X54457600Y-85445600D01*
X54457600Y-84809600D01*
X52931600Y-84809600D01*
X52931600Y-85445600D01*
X51917600Y-85445600D01*
X51917600Y-84809600D01*
X50391600Y-84809600D01*
X50391600Y-85445600D01*
X49377600Y-85445600D01*
X49377600Y-84809600D01*
X47851600Y-84809600D01*
X47851600Y-85445600D01*
X46837600Y-85445600D01*
X46837600Y-84809600D01*
X45311600Y-84809600D01*
X45311600Y-85445600D01*
X44297600Y-85445600D01*
X44297600Y-84809600D01*
X42771600Y-84809600D01*
X42771600Y-85445600D01*
X41757600Y-85445600D01*
X41757600Y-84809600D01*
X40231600Y-84809600D01*
X40231600Y-85445600D01*
X39217600Y-85445600D01*
X39217600Y-84809600D01*
X37691600Y-84809600D01*
X37691600Y-85445600D01*
X36677600Y-85445600D01*
X36677600Y-84809600D01*
X35151600Y-84809600D01*
X35151600Y-85445600D01*
X34137600Y-85445600D01*
X34137600Y-84809600D01*
X32611600Y-84809600D01*
X32611600Y-85445600D01*
X29819600Y-85445600D01*
X29819600Y-83793600D01*
X29839602Y-83725479D01*
X29893258Y-83678986D01*
X29945600Y-83667600D01*
X63145982Y-83667600D01*
X63214103Y-83687602D01*
G37*
%TD.AperFunction*%
%TD*%
M02*
