%TF.GenerationSoftware,KiCad,Pcbnew,(6.0.0)*%
%TF.CreationDate,2022-06-14T20:33:02+03:00*%
%TF.ProjectId,breadboard_power_supply,62726561-6462-46f6-9172-645f706f7765,rev?*%
%TF.SameCoordinates,Original*%
%TF.FileFunction,Soldermask,Bot*%
%TF.FilePolarity,Negative*%
%FSLAX46Y46*%
G04 Gerber Fmt 4.6, Leading zero omitted, Abs format (unit mm)*
G04 Created by KiCad (PCBNEW (6.0.0)) date 2022-06-14 20:33:02*
%MOMM*%
%LPD*%
G01*
G04 APERTURE LIST*
%ADD10R,1.700000X1.700000*%
%ADD11O,1.700000X1.700000*%
%ADD12R,3.000000X3.000000*%
%ADD13C,3.000000*%
%ADD14C,2.700000*%
%ADD15R,1.905000X2.000000*%
%ADD16O,1.905000X2.000000*%
%ADD17C,2.200000*%
%ADD18O,2.000000X4.000000*%
%ADD19O,4.000000X2.000000*%
G04 APERTURE END LIST*
D10*
%TO.C,J14*%
X31597600Y-78079600D03*
D11*
X31597600Y-75539600D03*
X31597600Y-72999600D03*
X31597600Y-70459600D03*
%TD*%
D10*
%TO.C,J5*%
X83169600Y-119710600D03*
D11*
X85709600Y-119710600D03*
X88249600Y-119710600D03*
X90789600Y-119710600D03*
%TD*%
D12*
%TO.C,J7*%
X70713600Y-117449600D03*
D13*
X75793600Y-117449600D03*
%TD*%
D10*
%TO.C,J3*%
X62316600Y-119760600D03*
D11*
X59776600Y-119760600D03*
X57236600Y-119760600D03*
X54696600Y-119760600D03*
X52156600Y-119760600D03*
X49616600Y-119760600D03*
X47076600Y-119760600D03*
X44536600Y-119760600D03*
%TD*%
D14*
%TO.C,H2*%
X50647600Y-78587600D03*
%TD*%
D12*
%TO.C,J4*%
X79095600Y-89509600D03*
D13*
X74015600Y-89509600D03*
X68935600Y-89509600D03*
X63855600Y-89509600D03*
X58775600Y-89509600D03*
X53695600Y-89509600D03*
%TD*%
D10*
%TO.C,J9*%
X53949600Y-70434600D03*
D11*
X56489600Y-70434600D03*
X59029600Y-70434600D03*
X61569600Y-70434600D03*
X64109600Y-70434600D03*
X66649600Y-70434600D03*
X69189600Y-70434600D03*
%TD*%
D10*
%TO.C,J12*%
X101930600Y-119735600D03*
D11*
X101930600Y-117195600D03*
X101930600Y-114655600D03*
X101930600Y-112115600D03*
%TD*%
D10*
%TO.C,J11*%
X90779600Y-80106600D03*
D11*
X90779600Y-82646600D03*
X90779600Y-85186600D03*
X90779600Y-87726600D03*
X90779600Y-90266600D03*
X90779600Y-92806600D03*
X90779600Y-95346600D03*
X90779600Y-97886600D03*
X90779600Y-100426600D03*
X90779600Y-102966600D03*
X90779600Y-105506600D03*
X90779600Y-108046600D03*
%TD*%
D15*
%TO.C,U1*%
X70459600Y-99669600D03*
D16*
X67919600Y-99669600D03*
X65379600Y-99669600D03*
%TD*%
D14*
%TO.C,H1*%
X82143600Y-78587600D03*
%TD*%
D10*
%TO.C,J13*%
X84175600Y-99425600D03*
D11*
X84175600Y-101965600D03*
X84175600Y-104505600D03*
X84175600Y-107045600D03*
%TD*%
D10*
%TO.C,J10*%
X31622600Y-112125600D03*
D11*
X31622600Y-114665600D03*
X31622600Y-117205600D03*
X31622600Y-119745600D03*
%TD*%
D10*
%TO.C,J6*%
X58028600Y-108559600D03*
D11*
X60568600Y-108559600D03*
X63108600Y-108559600D03*
%TD*%
D10*
%TO.C,J2*%
X101980600Y-82143600D03*
D11*
X101980600Y-84683600D03*
X101980600Y-87223600D03*
X101980600Y-89763600D03*
X101980600Y-92303600D03*
X101980600Y-94843600D03*
X101980600Y-97383600D03*
%TD*%
D15*
%TO.C,U2*%
X52679600Y-101630600D03*
D16*
X55219600Y-101630600D03*
X57759600Y-101630600D03*
%TD*%
D10*
%TO.C,J8*%
X91825600Y-70434600D03*
D11*
X94365600Y-70434600D03*
X96905600Y-70434600D03*
X99445600Y-70434600D03*
X101985600Y-70434600D03*
%TD*%
D17*
%TO.C,J1*%
X34305600Y-95605600D03*
D18*
X44805600Y-95605600D03*
X38805600Y-95605600D03*
D19*
X41805600Y-100305600D03*
%TD*%
M02*
