%TF.GenerationSoftware,KiCad,Pcbnew,(6.0.0)*%
%TF.CreationDate,2022-06-14T20:33:14+03:00*%
%TF.ProjectId,breadboard_power_supply,62726561-6462-46f6-9172-645f706f7765,rev?*%
%TF.SameCoordinates,Original*%
%TF.FileFunction,Plated,1,2,PTH,Mixed*%
%TF.FilePolarity,Positive*%
%FSLAX46Y46*%
G04 Gerber Fmt 4.6, Leading zero omitted, Abs format (unit mm)*
G04 Created by KiCad (PCBNEW (6.0.0)) date 2022-06-14 20:33:14*
%MOMM*%
%LPD*%
G01*
G04 APERTURE LIST*
%TA.AperFunction,ViaDrill*%
%ADD10C,0.400000*%
%TD*%
%TA.AperFunction,ViaDrill*%
%ADD11C,0.500000*%
%TD*%
%TA.AperFunction,ComponentDrill*%
%ADD12C,1.000000*%
%TD*%
G04 aperture for slot hole*
%TA.AperFunction,ComponentDrill*%
%ADD13O,1.000000X1.600000*%
%TD*%
G04 aperture for slot hole*
%TA.AperFunction,ComponentDrill*%
%ADD14O,1.600000X1.000000*%
%TD*%
%TA.AperFunction,ComponentDrill*%
%ADD15C,1.100000*%
%TD*%
%TA.AperFunction,ComponentDrill*%
%ADD16C,1.520000*%
%TD*%
G04 APERTURE END LIST*
D10*
X47345600Y-104749600D03*
X47853600Y-102463600D03*
X64109600Y-84175600D03*
X70459600Y-111099600D03*
X71983600Y-80873600D03*
X77063600Y-98145600D03*
X81355089Y-99897089D03*
X81381600Y-103987600D03*
D11*
X33070800Y-103733600D03*
X42096565Y-104936165D03*
X47091600Y-110693200D03*
X51155600Y-107797600D03*
X52075795Y-103585174D03*
X54305200Y-114096800D03*
X56997600Y-94589600D03*
X59690000Y-113538000D03*
X83159600Y-111506000D03*
D12*
%TO.C,J14*%
X31597600Y-70459600D03*
X31597600Y-72999600D03*
X31597600Y-75539600D03*
X31597600Y-78079600D03*
%TO.C,J10*%
X31622600Y-112125600D03*
X31622600Y-114665600D03*
X31622600Y-117205600D03*
X31622600Y-119745600D03*
D13*
%TO.C,J1*%
X38805600Y-95605600D03*
D14*
X41805600Y-100305600D03*
D12*
%TO.C,J3*%
X44536600Y-119760600D03*
D13*
%TO.C,J1*%
X44805600Y-95605600D03*
D12*
%TO.C,J3*%
X47076600Y-119760600D03*
X49616600Y-119760600D03*
X52156600Y-119760600D03*
%TO.C,J9*%
X53949600Y-70434600D03*
%TO.C,J3*%
X54696600Y-119760600D03*
%TO.C,J9*%
X56489600Y-70434600D03*
%TO.C,J3*%
X57236600Y-119760600D03*
%TO.C,J6*%
X58028600Y-108559600D03*
%TO.C,J9*%
X59029600Y-70434600D03*
%TO.C,J3*%
X59776600Y-119760600D03*
%TO.C,J6*%
X60568600Y-108559600D03*
%TO.C,J9*%
X61569600Y-70434600D03*
%TO.C,J3*%
X62316600Y-119760600D03*
%TO.C,J6*%
X63108600Y-108559600D03*
%TO.C,J9*%
X64109600Y-70434600D03*
X66649600Y-70434600D03*
X69189600Y-70434600D03*
%TO.C,J5*%
X83169600Y-119710600D03*
%TO.C,J13*%
X84175600Y-99425600D03*
X84175600Y-101965600D03*
X84175600Y-104505600D03*
X84175600Y-107045600D03*
%TO.C,J5*%
X85709600Y-119710600D03*
X88249600Y-119710600D03*
%TO.C,J11*%
X90779600Y-80106600D03*
X90779600Y-82646600D03*
X90779600Y-85186600D03*
X90779600Y-87726600D03*
X90779600Y-90266600D03*
X90779600Y-92806600D03*
X90779600Y-95346600D03*
X90779600Y-97886600D03*
X90779600Y-100426600D03*
X90779600Y-102966600D03*
X90779600Y-105506600D03*
X90779600Y-108046600D03*
%TO.C,J5*%
X90789600Y-119710600D03*
%TO.C,J8*%
X91825600Y-70434600D03*
X94365600Y-70434600D03*
X96905600Y-70434600D03*
X99445600Y-70434600D03*
%TO.C,J12*%
X101930600Y-112115600D03*
X101930600Y-114655600D03*
X101930600Y-117195600D03*
X101930600Y-119735600D03*
%TO.C,J2*%
X101980600Y-82143600D03*
X101980600Y-84683600D03*
X101980600Y-87223600D03*
X101980600Y-89763600D03*
X101980600Y-92303600D03*
X101980600Y-94843600D03*
X101980600Y-97383600D03*
%TO.C,J8*%
X101985600Y-70434600D03*
D15*
%TO.C,U2*%
X52679600Y-101630600D03*
X55219600Y-101630600D03*
X57759600Y-101630600D03*
%TO.C,U1*%
X65379600Y-99669600D03*
X67919600Y-99669600D03*
X70459600Y-99669600D03*
D16*
%TO.C,J4*%
X53695600Y-89509600D03*
X58775600Y-89509600D03*
X63855600Y-89509600D03*
X68935600Y-89509600D03*
%TO.C,J7*%
X70713600Y-117449600D03*
%TO.C,J4*%
X74015600Y-89509600D03*
%TO.C,J7*%
X75793600Y-117449600D03*
%TO.C,J4*%
X79095600Y-89509600D03*
M02*
